<svg xmlns="http://www.w3.org/2000/svg" xmlns:xlink="http://www.w3.org/1999/xlink" viewBox="0 0 1025 760"><defs><style>.cls-1{isolation:isolate;}.cls-2{fill:url(#radial-gradient);}.cls-3{fill:#2e27ba;}.cls-4{fill:#23239e;}.cls-5{fill:#1d1d7f;}.cls-6{fill:#181863;}.cls-7{fill:#0c0c33;}.cls-8{fill:#0d0826;}.cls-10,.cls-11,.cls-12,.cls-9{mix-blend-mode:color-dodge;}.cls-9{fill:url(#radial-gradient-2);}.cls-10{opacity:0.33;fill:url(#radial-gradient-3);}.cls-11{opacity:0.42;fill:url(#radial-gradient-4);}.cls-12{opacity:0.43;fill:url(#radial-gradient-5);}.cls-13{mix-blend-mode:soft-light;fill:url(#radial-gradient-6);}</style><radialGradient id="radial-gradient" cx="538.58" cy="418.52" r="827.92" gradientTransform="translate(-2.3 -145.96) scale(0.9 1.19)" gradientUnits="userSpaceOnUse"><stop offset="0" stop-color="#ffc16a"/><stop offset="0.2" stop-color="#ffa6d9"/><stop offset="1" stop-color="#3e007f"/></radialGradient><radialGradient id="radial-gradient-2" cx="344.18" cy="371.53" r="61.42" gradientTransform="translate(0 0.68)" gradientUnits="userSpaceOnUse"><stop offset="0.42" stop-color="#fff"/><stop offset="0.51" stop-color="#cfcfcf"/><stop offset="0.64" stop-color="#868686"/><stop offset="0.76" stop-color="#4c4c4c"/><stop offset="0.87" stop-color="#232323"/><stop offset="0.95" stop-color="#090909"/><stop offset="1"/></radialGradient><radialGradient id="radial-gradient-3" cx="346.61" cy="368.89" r="177.94" gradientTransform="translate(0 0.82)" gradientUnits="userSpaceOnUse"><stop offset="0" stop-color="#ffff04"/><stop offset="0.12" stop-color="#fbfb04"/><stop offset="0.25" stop-color="#efef04"/><stop offset="0.37" stop-color="#dada03"/><stop offset="0.5" stop-color="#bebe03"/><stop offset="0.63" stop-color="#999902"/><stop offset="0.76" stop-color="#6c6c02"/><stop offset="0.88" stop-color="#373701"/><stop offset="1"/></radialGradient><radialGradient id="radial-gradient-4" cx="603.2" cy="411.36" r="216.02" gradientTransform="translate(-500.21 -152) scale(1.41 1.29)" gradientUnits="userSpaceOnUse"><stop offset="0.01" stop-color="#f5ffbf"/><stop offset="0.57" stop-color="#ff6d04"/><stop offset="0.57" stop-color="#fc6c04"/><stop offset="0.71" stop-color="#923e02"/><stop offset="0.82" stop-color="#431d01"/><stop offset="0.9" stop-color="#130800"/><stop offset="0.94"/></radialGradient><radialGradient id="radial-gradient-5" cx="538.59" cy="132.9" r="263.9" gradientTransform="translate(-500.21 -132.46) scale(1.41 1.29)" gradientUnits="userSpaceOnUse"><stop offset="0.01" stop-color="#f5ffbf"/><stop offset="0.57" stop-color="#fff"/><stop offset="0.57" stop-color="#fcfcfc"/><stop offset="0.71" stop-color="#929292"/><stop offset="0.82" stop-color="#434343"/><stop offset="0.9" stop-color="#131313"/><stop offset="0.94"/></radialGradient><radialGradient id="radial-gradient-6" cx="476.16" cy="445.28" r="465.55" gradientTransform="translate(82.21 -145.19) scale(0.9 1.19)" gradientUnits="userSpaceOnUse"><stop offset="0" stop-color="#fff"/><stop offset="0.15" stop-color="#e1e1e1"/><stop offset="0.47" stop-color="#939393"/><stop offset="0.95" stop-color="#181818"/><stop offset="1" stop-color="#0a0a0a"/><stop offset="1"/></radialGradient></defs><title>illustration</title><g class="cls-1"><g id="Layer_1" data-name="Layer 1"><rect class="cls-2" x="-2.41" width="1026.95" height="769"/><path class="cls-3" d="M1024.92,412.78v355.8H-2.78l.36-369.72c22.18-14.9,40-17.34,52.32-16.69,25.35,1.33,34.31,16,58,11.89,18.41-3.2,21.28-13.47,38.12-15,18.56-1.68,34.43,9.06,44.63,18a102,102,0,0,0,70.75-8.39c9.85-5,19.55-11.68,30.2-12,20.82-.68,37.34,22.59,57.86,26.93,11.47,2.43,23.14-1.27,34.4-4.88s23-7.16,34.42-4.45,51.31,25.51,64.65,15.28c13.63-10.44,30.67-13.87,46.29-9.32,5.62,1.63,11,4.24,16.61,6.05,14.72,4.77,57.87.26,64.16-1.32,26.13-6.57,35.86-2.11,60.71-4.58,39.11-3.9,42.94-16.09,79-17,13.24-.34,9.14,2.46,29.78,3.77,23,1.46,69.51.58,107-9.15,4.78-1.24,15.11-4.1,25.42,1,9,4.49,7.79,10,15.67,14.62,16.54,9.65,34-7.67,45.14,2.95,3.74,3.57,2.78,6.52,5.66,11Z"/><path class="cls-4" d="M1025,427.58s-2.83,12.95-5.29,12.24c-16.27-4.74-29.07-22.48-45.39-26.93-17.83-4.85-35.85,7.19-50.2,21.93-5.76,3.47-14.3,7.24-23.91,5.65-5-.83-5.65-1.82-14.8-6.27a71.14,71.14,0,0,0-32.48-7.35c-4.52.09-9.2.68-13.15,3.56-3.49,2.54-6.14,6.65-9.18,10-6.79,7.58-15.8,11.62-24.69,11.07v.17c-16.32.07-32.62-6.45-46.16-18.45-4.54-4-8.85-8.71-14-11.3a19.79,19.79,0,0,0-17.33-.36c-8.23,3.77-15.48,13.24-24.13,11.85l3.34.09a140,140,0,0,1-43.33-1.45c-27.11-5.21-33.72-15-49.62-12.36C594,423.11,590.7,442,569.86,455c-14.41,9-37.51,15.4-75.67,4-11.47-7.36-33.11-18.85-61.84-20.28-20.92-1-41.15,0-58.35,12.28-7.1,5.07-13.55,11.67-20.87,16.16s-16,6.68-23.43,2.46l-3.77,1.09c-7.93-4.43-19.72-9.28-33.44-7.86-18.06,1.88-28,13.46-42,22.43-13.76,8.83-35.26,17.61-68.56,15.92-7-6.83-18.23-15.86-33.77-20.5-13.51-4-24.23-2.93-35.68-1.92-16.11,1.43-39.43,3.21-69.86,4.57-.69-.63-12.88-11.38-27.49-6.23-13.53,4.77-18,19.18-18.59,21.46-.66,2.61-1.05,5.33-1.45,8l2.11,262h1027.7V440.38Z"/><path class="cls-5" d="M1024.62,577.93c-16.58-9.66-15.48-40.21-31.26-51.5l-2-3.06c.19-12.24-14.77-16-20.88-26.06-2.39-3.92-3.34-8.79-5.55-12.85-2.93-5.4-7.84-9-12.86-11.65a62.35,62.35,0,0,0-64.3,3.67c-5.07,3.45-9.82,7.67-15.35,10s-12.31,2.34-16.74-2.12c-1.71-1.72-3-4-4.89-5.43-2.42-1.82-5.47-2-8.36-2.06-12.81-.35-26-.19-37.94,5s-22.76,16.4-25.07,30.88l5.25-13.44q-5.54,10.23-11.08,20.43a13.16,13.16,0,0,1-3.06,4.24c-1.78,1.4-4,1.58-6.18,1.72L743,527c-2.88.19-5.92.43-8.26,2.35-4.76,3.94-4,12.12-5.68,18.59-1.91,7.58-7.55,13.33-13.81,16.57s-13.18,4.33-20,5.39l3.93-.2c-7.73,5.79-19.3,1.07-26.41,7.83-2.12,2-3.57,4.89-5.75,6.84-3.49,3.14-8.24,3.5-12.66,3.53-7,0-14.23-.51-20.26-4.5-8.83-5.83-13.64-18.11-23-22.76-4.58-2.29-9.8-2.46-14.36-4.82s-8.46-8.45-6.3-13.62l-1.44,1.62c-7.82-10.36-16.33-20.45-27-26.62-18.64-10.77-41.06-7.94-61.12-1.34-3.4,1.11-6.86,2.34-10.39,2.19-12.47-.59-23-18-34.6-12.75l3.84,3.13a65.22,65.22,0,0,0-35-13.9c-8-.63-16.3.23-23.56-3.56-4.23-2.2-7.78-5.86-12-8-12-6.14-26.18,1.19-36.09,11.15-8.22,8.26-15.08,18.43-23.64,26.07.15-.26.29-.53.42-.8L324,524.57a52.53,52.53,0,0,0,5.53-4.37c-5.29,9.95-14.88,16.15-24.79,18.87-10.15,2.78-20.74,2.35-31.18,1.91-8.14-.35-16.53-.76-23.93-4.7-3.26-1.74-6.26-4.15-9.68-5.47-6.94-2.71-15.08-.06-20.09,6a16.43,16.43,0,0,0-1,1.32,20.27,20.27,0,0,0-1.65,2.84l1.65-2.84,1-1.68,0,.36c.42,8.43-6.28,15.25-13.08,18.61s-14.66,4.94-20.58,10.24c-3.23,2.89-5.71,6.74-8.87,9.74-7.61,7.2-18.17,8.56-28,8.43-16.17-.2-32.16-3.52-48.07-6.83-4.26-.88-8.65-1.82-12.28-4.54-2.35-1.77-4.31-4.24-6.84-5.65-5.61-3.11-13.53-.89-17.93-5.24A8.7,8.7,0,0,1,62.94,560l-.22,1.44,1.44.11,2.9.22a90.11,90.11,0,0,0-29.17-19c-3.85-1.52-7.82-2.78-11.4-5-4-2.51-7.4-6.18-11.28-9-10.86-7.84-24.44-8.2-37.27-8.23l3.32,248H1024.05Z"/><polygon class="cls-6" points="1022.03 629.43 1017.47 628.09 1016.45 623.32 1013.18 620.96 1010.27 618.2 1008.24 614.52 1005.48 611.61 1001.57 609.91 997.81 608.07 996.68 603.42 992.99 601.5 990 598.83 985.75 597.5 983.86 593.67 981.91 589.9 978.83 587.33 974.23 586.37 971.92 582.98 968.71 580.54 965.72 577.88 962.89 575.05 960.82 571.13 956.93 569.32 953.56 566.92 949.5 565.64 946.46 562.85 942.22 562.19 938.77 560.12 935.43 557.71 931.78 555.91 927.68 555.38 924.12 553.12 920.14 552.22 915.93 552.49 911.96 551.77 908.25 549.13 904.05 549.86 899.92 550.73 895.93 549.66 891.88 549.97 887.8 547.79 883.72 548.42 879.82 551.21 875.77 551.13 871.82 552.07 867.73 551.88 863.81 553.02 859.42 551.08 855.41 552.02 851.42 550.2 847.25 551.17 842.77 552.59 838.91 550.6 834.95 549.21 831.49 546.78 828.93 543.24 826.2 540.37 822.19 538.58 819.52 535.36 815.63 533.1 813.78 529.19 812.49 524.88 807.08 523.7 807.41 518.15 802.84 516.33 800.07 513.13 798.22 509.64 796.03 506.34 792.09 505.07 789.32 502.57 785.81 499.34 782.63 502.97 779.49 504.08 777.15 506.69 772.32 506.67 770.15 509.69 767.09 512.3 764.32 515.18 762.67 519.16 758.14 520.34 755.77 523.61 754.65 528.11 751.67 530.8 749.42 534.06 746.69 536.93 743.75 539.67 739.69 540.86 736.25 542.86 732.57 544.97 728.21 543.17 724.41 541.99 721.09 539.91 716.97 539.05 714.05 536.18 709.6 534.87 708.58 530.2 704.35 528.38 702.06 524.93 700.99 520.58 698.83 517.06 693.84 515.7 691.57 512.31 690.32 508.18 687.04 505.78 683.97 503.25 681.69 499.87 679.75 495.96 675.53 494.82 672.52 492.15 669.89 488.78 665.16 488.93 662.55 485.27 659.02 483.21 654.89 482.63 650.66 482.72 647.3 479.85 642.97 480.92 639.12 479.99 635.1 480.69 631.25 476.88 627.18 480.6 623.12 479.86 619.05 477.74 614.98 477.05 610.96 480.45 606.88 479.39 602.82 479.41 598.74 478.74 594.71 480.23 590.4 479.27 586.35 481.14 581.41 478.97 577.78 481.9 575.18 485.35 571.1 487.08 568.5 490.37 565.39 493.29 563.13 496.78 563.6 501.98 558.74 503.11 557.12 507.23 554.01 509.84 549.34 509.65 547.15 514.09 542.43 513.33 538.67 514.54 535.7 517.76 532.13 519.58 528.56 521.4 524.44 521.63 520.17 521.29 516.75 523.63 512.85 524.39 508.97 525.27 505.63 528.01 501.61 528.37 497.61 528.77 493.65 529.28 490.32 532.28 485.9 530.96 482.24 532.69 478.67 534.78 474.66 535.1 470.94 536.61 467.22 538.19 462.91 537.2 459.06 538.2 454.98 538.15 451.22 539.52 447.25 539.94 443.62 541.91 439.76 542.83 435.57 542.31 432.25 545.61 428.02 544.91 424.31 546.47 420.17 546.2 417.04 550.21 412.74 549.27 409.16 551.3 404.71 549.9 401.27 552.45 397.33 553.07 393.75 554.9 389.3 554.26 386.04 556.96 382.2 558.58 379.22 561.51 376.96 565.17 373.95 567.88 370.25 569.85 367.5 572.94 363.06 573.81 360.26 576.87 356.41 578.08 352.64 579.4 348.63 579.71 344.74 578.87 341.1 577.39 337.72 575.49 333.05 576.05 328.95 575.01 326 572.09 322.62 569.92 320.35 565.88 316.22 564.95 313.2 561.75 308.47 562.73 305.02 560.17 301 559.37 296.91 559.39 292.95 560.39 289.08 560.81 285.07 560.42 281.03 560.53 277.25 561.85 274.11 564.69 271.83 564.97 270.3 567.86 267.95 565.53 263.77 564.31 259.67 567.23 255.48 566.58 251.26 566.89 247.39 568.54 244.02 571.07 240.04 572.55 237.19 575.66 233.6 577.94 232.78 582.99 228.19 584.79 227.12 589.58 221.91 590.49 218.65 592.81 216.07 595.98 212.58 598.39 208.41 596.7 204.54 597.03 200.62 596.84 196.79 595.92 192.84 595.46 188.59 596.49 185.27 592.76 181.19 593.05 177.21 594.02 173.17 592.46 169.57 594.77 165.99 596.31 161.96 596.37 157.98 596.74 154.6 598.99 150.43 598.62 146.64 599.26 143.13 601.41 139.22 600.64 135.42 601.03 131.62 600.44 128.71 601.62 124.23 600.57 121.38 604 117.46 605.23 113.81 607.08 110.59 610.11 106.81 611.84 101.9 609.92 98.55 613.02 94.32 612.92 90.38 613.97 86.2 613.36 82.18 613.49 78.2 614.06 74.11 616.79 70.14 614.51 66.08 614.38 61.87 614.67 57.79 614.01 54.07 611.36 49.61 610.96 45.42 609.84 41.91 606.87 37.87 605.28 33.75 604.74 29.5 604.76 25.83 602.74 22.03 601.14 17.8 601.33 14.13 598.87 9.63 600.7 5.64 600.07 2.01 596.8 -2.17 597.24 -6.17 596.29 -10.24 595.84 -14.32 595.74 -18.77 595.69 -16.97 599.81 -16.46 603.83 -18.5 607.88 -19.99 611.93 -19.6 615.95 -17.78 619.95 -19.79 624 -19.4 628.01 -17.87 632.02 -19.64 636.07 -17.47 640.07 -17.8 644.1 -18.74 648.14 -18.58 652.17 -16.62 656.17 -17.91 660.21 -16.48 664.22 -16.9 668.25 -15.66 672.27 -16.16 676.3 -18.77 680.36 -18.36 684.38 -15.78 688.38 -18.06 692.44 -18.61 696.47 -18.87 700.5 -18.87 704.53 -17.66 708.55 -16.67 712.57 -15.75 716.58 -17.63 720.63 -15.34 724.63 -17.12 728.68 -16.69 732.71 -15.82 736.73 -18.42 740.79 -17.75 744.81 -16.06 748.82 -18.47 752.88 -14.92 756.87 -17.32 760.93 -15.73 764.95 -17.53 770.2 -12.33 769.51 -8.32 769.64 -4.32 770.67 -0.32 769 3.68 768.01 7.68 767.01 11.68 767.99 15.69 768.21 19.69 768.57 23.69 768.33 27.69 770.15 31.7 768.32 35.7 769.46 39.7 769.41 43.71 769.14 47.71 767.3 51.71 770.69 55.71 769.86 59.72 769.57 63.72 768.64 67.72 768.55 71.72 767.83 75.72 769.81 79.72 770.02 83.72 767.86 87.72 768.14 91.73 769.47 95.73 769.01 99.73 770.41 103.73 770.44 107.73 768.42 111.74 767.61 115.74 767.93 119.74 770.57 123.75 768.78 127.75 767.5 131.75 769.93 135.75 769.79 139.76 769.19 143.76 769.94 147.76 770.84 151.77 768.78 155.77 770.91 159.77 768.2 163.77 770.76 167.77 769.38 171.78 768.87 175.78 770.28 179.78 770.27 183.78 768.86 187.78 767.29 191.78 767.93 195.79 769.63 199.79 769.58 203.79 769.06 207.8 769.74 211.8 768.78 215.81 769.05 219.81 770.4 223.81 770.29 227.81 770.38 231.82 769.1 235.82 770.01 239.82 769.08 243.82 770.53 247.82 769.08 251.83 768.32 255.83 767.28 259.83 767.27 263.83 770.06 267.84 769.92 271.84 768.07 275.84 767.43 279.85 770.79 283.85 768.81 287.85 768.44 291.86 770.02 295.86 770.36 299.86 769.7 303.87 768.39 307.87 770.81 311.87 770.42 315.87 768.79 319.87 769.39 323.86 770.13 327.86 767.78 331.86 767.34 335.86 767.93 339.85 768.59 343.85 770.37 347.85 769.48 351.85 768.04 355.84 768.85 359.84 767.37 363.84 769.63 367.84 770.71 371.84 767.97 375.84 770.37 379.84 768.84 383.84 768.09 387.84 770.62 391.84 768.48 395.85 769.5 399.85 768.2 403.86 767.58 407.86 770.26 411.86 767.71 415.87 770.23 419.87 769.93 423.87 767.25 427.87 768.82 431.87 768.17 435.87 767.16 439.87 768.2 443.87 769.31 447.87 770.69 451.86 767.81 455.86 770.57 459.86 770.65 463.86 767.11 467.86 770.74 471.87 770.44 475.87 768.27 479.87 767.39 483.87 769.7 487.88 769.58 491.88 769.13 495.89 770 499.89 767.3 503.89 768.51 507.9 769.25 511.9 769.51 515.9 768.92 519.9 768.64 523.9 768.65 527.9 769.77 531.9 768.94 535.9 767.99 539.9 770.88 543.91 770.64 547.91 767.54 551.91 769.83 555.91 768.75 559.92 770.06 563.92 770.57 567.93 768.71 571.93 767.42 575.94 769.35 579.94 770.82 583.94 768.95 587.95 770.4 591.95 767.66 595.95 767.06 599.95 768.5 603.95 767.73 607.96 769.35 611.96 767.18 615.97 770.94 619.97 767.74 623.98 770.32 627.98 767.93 631.99 770.47 635.99 767.82 639.99 767.02 644 769.53 648 768.95 652 769.43 656 770.12 660.01 769.51 664.01 769.66 668.02 768.95 672.03 770.62 676.03 770.28 680.04 770.76 684.04 769.45 688.04 768.36 692.05 768.63 696.05 767.32 700.05 769.12 704.06 770.8 708.07 769.7 712.07 768.78 716.08 767.35 720.08 767.87 724.09 769.74 728.09 768.67 732.1 768.15 736.1 770.8 740.11 769.89 744.11 769.56 748.12 770.09 752.13 768.89 756.13 769.66 760.14 768.07 764.14 770.22 768.15 767.98 772.15 770.16 776.16 770.74 780.17 767.32 784.17 768.47 788.18 767.69 792.18 769.81 796.19 767.9 800.2 770.98 804.2 767.96 808.21 769.56 812.21 768.2 816.22 767.25 820.23 769.31 824.23 768.32 828.24 767.73 832.25 768.32 836.25 769.35 840.26 770.82 844.26 767.64 848.26 767.87 852.26 767.35 856.27 767.91 860.27 769.23 864.28 768.5 868.28 768.84 872.29 770.39 876.29 770.15 880.3 768.85 884.3 768.65 888.31 770 892.32 769.48 896.32 767.6 900.33 770.89 904.33 770.19 908.34 767.14 912.35 769.89 916.36 770.23 920.36 767.86 924.37 769.13 928.38 768.42 932.39 768.77 936.39 768.64 940.4 767.67 944.41 768.77 948.42 768.99 952.43 768.83 956.44 767.99 960.45 767.07 964.46 769.03 968.47 770.69 972.47 770.79 976.48 769.71 980.49 768.85 984.5 768.09 988.51 770.04 992.52 767.08 996.53 769.4 1000.54 769.29 1004.55 767.3 1008.56 767.18 1012.57 769.44 1016.59 769.85 1020.61 770.01 1024.62 768.99 1025.73 764.99 1025.81 761 1022.47 757.09 1024.64 753.06 1023.46 749.1 1023.21 745.12 1024.4 741.11 1022.45 737.17 1022.12 733.19 1024.05 729.16 1022.61 725.21 1023.47 721.21 1022.89 717.23 1025.3 713.19 1024.32 709.23 1022.35 705.28 1024.58 701.25 1024.98 697.25 1023.69 693.29 1023.17 689.32 1021.38 685.37 1021.68 681.38 1022.67 677.37 1020.61 673.43 1020.79 669.44 1022.37 665.42 1023.58 661.41 1023.98 657.41 1022.09 653.46 1023.12 649.45 1020.56 645.51 1020.01 641.53 1021.7 637.51 1021.9 633.52 1022.03 629.43"/><polygon class="cls-7" points="1020.49 647.06 1019.53 643.88 1016.2 641.78 1012.56 640.21 1009.31 637.98 1005.1 637.18 1003.16 633.05 998.01 633.37 996.05 629.4 993.92 625.79 989.88 624.44 987.56 621.12 984.82 618.28 979.7 617.82 979.82 612.18 976.58 609.83 972.44 608.21 970.21 604.89 967.41 602.04 967.28 597.12 964.27 594.17 960.44 591.83 959.46 587.07 953.63 587 950.37 584.92 947.43 583.27 944.54 580.56 941.02 578.73 937.26 578.01 933.52 577.41 929.69 578.64 925.87 577.27 922.06 579.7 918.28 580.88 914.51 581.19 910.51 578.61 906.6 578.41 903.19 581.85 899.3 581.63 895.27 581.19 891.1 581.36 888.52 586.42 884.01 585.61 879.66 585.62 876.79 589.05 874.26 592.94 870.76 594.72 867.35 596.7 863.62 598.14 859.33 598.7 856.24 601.29 851.91 601.89 850.43 606.98 844.98 605.89 841.24 607.47 838.46 610.52 835.32 612.99 831.93 615.11 828.98 617.88 826.48 621.43 822.26 622.2 819.65 625.64 814.68 624.98 811.16 626.8 809.45 632.19 804.23 630.61 802.05 635.54 798.13 636.69 794.35 638.22 790.23 638.67 785.75 637.33 782.09 639.15 778.37 641.72 774.2 640.52 770.25 637.87 766.15 640.62 762.28 639.3 763.19 637.76 758.16 638.05 756.24 633.89 751.33 633.92 750.39 628.5 744.8 629.34 741.68 626.85 738.95 623.87 735.46 621.86 733.53 617.95 732.13 613.51 728.21 612 725.16 609.49 723.05 606.02 720.58 603 717.16 600.55 712.64 599.41 710.87 595.19 707.16 593.31 703.18 591.97 700.51 587.51 695.52 587.41 691.46 585.49 686.9 585.21 683.46 580.85 678.74 582.94 674.48 583.07 670.19 581.19 666.1 584.42 661.61 581.36 657.66 581.15 653.09 584.22 648.68 583.48 646.07 578.87 642.04 577.64 639.12 574.64 635.55 572.54 631.62 571.01 628.76 567.87 625.9 564.27 620.74 565.75 617.63 562.14 612.85 564.34 609.73 559.5 605.42 563.13 601.56 560.78 597.51 560.56 593.48 560.84 590.4 565.02 586.32 564.92 582.05 564 578.46 566.04 574.38 565.67 570.42 565.72 566.42 565.26 562.91 569.01 559.01 569.89 554.79 566.53 550.95 567.96 547.04 568.58 542.98 571.7 538.78 570.44 534.6 570.38 530.49 569.31 527.44 567.27 524.34 566.33 519.92 568.36 516.72 571.42 512.01 570.85 507.82 571.81 504.86 574.87 502.49 578.69 497.59 578.7 495.64 583 490.9 583.38 489.06 587.7 485.22 589.33 483.92 594.27 478.59 594.02 475.16 596.23 472.78 599.75 470.76 603.7 466.71 605.13 462.95 606.93 459.39 608.97 457.05 612.52 452.67 613.55 452.38 619.66 446.7 619.07 444.55 622.86 442.69 627.04 438.86 628.75 434.65 629.93 430.5 631.15 429.78 636.94 424.57 636.69 421.38 639.15 418.71 642.16 415.83 644.97 412.93 648.09 408.59 648.2 405.17 650.98 400.73 648.72 396.95 648.24 393.21 647.05 388.02 650.3 384.64 647.28 382.14 642.89 377.47 643.19 373.8 640.91 369.45 641.67 365.53 639.26 361.59 641.22 357.76 642.24 353.28 641.58 349.9 643.78 346.85 646.98 343.03 648.33 338.58 646.02 334.75 645.77 330.53 647.58 326.85 645.6 322.53 645.41 318.53 644.08 315.79 640.54 310.86 640.75 308.75 636.32 305.72 633.3 300.2 634.81 297.21 631.77 293.86 629.27 290.04 627.77 286.63 624.92 282.52 624.27 278.19 624.7 273.98 625.13 270.62 620.35 266.2 622.64 262.19 621.59 258.1 619.28 254.11 624.11 250.14 624.47 246.03 623.73 241.66 622.04 237.52 622.32 233.35 622.59 229.64 624.82 225.64 625.75 221.5 626.25 217.89 628.45 214.17 630.22 210.38 631.8 205.89 631.48 202.35 633.65 199.11 636.57 194.95 637.09 191.63 639.81 187.89 641.43 183.62 641.65 179.96 643.49 176.89 646.87 171.78 644.87 168.42 647.49 165.31 650.79 160.53 649.64 156.14 649.54 154.38 653.03 156.29 655.76 151.77 653.77 147.48 655.55 143.86 652.24 139.66 651.87 136.6 655.59 132.66 656.1 130.59 660.23 127.42 662.14 123.81 664.17 118.61 664.49 117.61 669.74 111.99 669.79 110.95 674.96 107.52 677.48 102.51 677.96 99.04 680.17 96.64 683.5 93.67 686.18 89.94 687.43 86.25 688.68 82.71 690.41 79.19 692.74 74.82 690.52 71.25 693.61 67.3 694.85 63.27 694.66 59.52 691.08 55.28 694.05 51.5 692.41 47.64 691.58 44.53 687.77 40.74 687.13 36.75 686.61 32.31 687.24 29.26 683.95 24.6 684.84 22.37 679.83 16.93 682.25 14.83 677.22 10.48 677.08 6.8 675.49 4.53 671.05 -0.32 671.85 -4.83 671.96 -8.32 670 -11.69 667.8 -15.48 666.51 -17.47 663.08 -17.65 666.9 -17.35 670.97 -20.82 674.98 -20.37 679.06 -17.18 683.17 -18.4 687.22 -18.02 691.29 -19.15 695.34 -17.39 699.44 -20.72 703.45 -17.06 707.58 -20.04 711.6 -18.22 715.69 -21.47 719.71 -17.02 723.85 -18.79 727.89 -20.1 731.93 -20.25 736 -21.72 740.04 -20.23 744.14 -20.54 748.2 -18.23 752.31 -20.74 756.34 -18.3 760.45 -18.45 764.53 -18.41 767.13 -15.91 768.18 -11.9 766.99 -7.9 767.2 -3.9 766.57 0.11 768.72 4.11 769.85 8.12 769.92 12.13 767.92 16.13 769.55 20.14 769.12 24.14 768.02 28.15 766.24 32.16 769.89 36.16 770.4 40.17 770.5 44.18 768.82 48.18 768.16 52.19 770.18 56.19 766.23 60.2 768.59 64.2 770.08 68.21 767.99 72.21 766.86 76.22 769.13 80.22 770.11 84.23 768.68 88.23 766.48 92.23 770.91 96.24 767.34 100.25 768.97 104.25 767.72 108.26 766.71 112.26 769.4 116.27 770.09 120.28 766.88 124.28 766.89 128.29 770.52 132.3 770.64 136.3 767.72 140.31 767.21 144.31 767.3 148.32 766.51 152.32 766.31 156.33 769.91 160.34 768.31 164.34 766.9 168.35 766.91 172.35 770.85 176.36 766.09 180.36 768.35 184.37 771.05 188.37 768.28 192.38 767.64 196.38 770.84 200.39 769.7 204.4 766.12 208.41 767.1 212.41 767.79 216.42 770.95 220.43 767.32 224.43 766.47 228.44 769.14 232.44 768.01 236.45 770.23 240.45 768.27 244.46 769.18 248.47 769.81 252.47 768.34 256.48 770.97 260.48 768.43 264.49 769.05 268.49 766.59 272.5 770.97 276.51 766.26 280.52 770.23 284.52 769.45 288.53 767.07 292.54 768.43 296.54 767.2 300.55 769.02 304.55 766.22 308.56 766.3 312.56 767.82 316.56 768.31 320.56 766.37 324.56 766.99 328.56 770.46 332.56 767.97 336.57 770.31 340.57 771.08 344.57 769.74 348.57 766.7 352.57 766.4 356.57 767.11 360.57 766.24 364.57 768.47 368.58 769.8 372.58 769.76 376.58 767.71 380.59 766.96 384.59 770.37 388.6 770.65 392.61 766.43 396.62 770.11 400.62 770.82 404.63 768.67 408.63 770.24 412.64 770.4 416.64 766.12 420.65 769.08 424.65 766.94 428.66 768.75 432.66 767.85 436.66 767.88 440.67 769.43 444.67 767.46 448.67 769.59 452.67 770.99 456.68 766.6 460.68 770.23 464.68 766.82 468.69 769.68 472.69 766.99 476.7 769.78 480.7 767.62 484.71 766.59 488.72 770.42 492.73 770.85 496.74 767.57 500.74 769.04 504.75 769.67 508.75 769.25 512.76 770.09 516.76 768.93 520.77 767.2 524.77 769.81 528.78 770.72 532.78 770.76 536.78 769.15 540.79 768.75 544.79 766.47 548.8 767.17 552.81 766.58 556.82 768.44 560.83 768.88 564.83 768.65 568.84 766.17 572.85 769.94 576.86 766.75 580.86 766.59 584.87 770.38 588.87 766.42 592.88 767.29 596.88 766.49 600.89 769.16 604.89 767.81 608.9 766.71 612.91 770.51 616.92 768.4 620.93 769.75 624.93 768.78 628.94 770.95 632.95 767.15 636.96 767.17 640.96 767.62 644.97 769.14 648.98 768.57 652.98 770.66 656.99 768.13 661 766.26 665.01 767.1 669.02 770.95 673.02 770.27 677.03 770.27 681.04 766.4 685.05 769.44 689.05 770.78 693.06 770.91 697.07 770.64 701.08 770.47 705.09 768.36 709.1 766.75 713.11 768.91 717.12 768.01 721.12 770.97 725.13 766.1 729.14 770.07 733.15 767.48 737.15 766.33 741.16 771.02 745.17 767.9 749.18 770.5 753.19 769.2 757.2 766.13 761.21 768.9 765.22 768.15 769.23 766.53 773.24 766.37 777.25 767.57 781.25 770.65 785.26 769.1 789.27 770.62 793.28 766.58 797.29 768.93 801.3 770.73 805.31 770.11 809.32 766.52 813.33 766.08 817.34 768.63 821.35 768.66 825.36 767.77 829.37 769.2 833.38 771.05 837.39 768.67 841.4 769.16 845.4 769.44 849.41 770.71 853.41 769.81 857.42 770.89 861.43 770.93 865.44 770.27 869.45 769.5 873.46 766.46 877.46 766.42 881.47 768.21 885.48 766.95 889.49 771.06 893.5 770.11 897.51 766.49 901.52 769.9 905.53 766.09 909.54 770.7 913.55 768.28 917.56 771 921.57 767.42 925.58 770.08 929.6 767.16 933.61 767.69 937.62 766.93 941.63 770.67 945.64 766.1 949.65 767.63 953.67 769.88 957.68 766.78 961.69 767.52 965.71 768.76 969.71 767.94 973.73 768.13 977.74 767.96 981.75 770.67 985.76 770.12 989.77 770.82 993.79 768.37 997.81 766.54 1001.82 766.48 1005.84 768.8 1009.85 768.78 1013.87 767.49 1017.89 767.08 1020.4 767.02 1021.61 764.64 1021.65 760.71 1024.26 756.79 1023.13 752.85 1022.37 748.9 1019.79 744.95 1020.3 741.02 1020.8 737.09 1023.53 733.16 1021.76 729.22 1021 725.28 1022.08 721.35 1024.09 717.42 1023.92 713.48 1020.27 709.52 1023.02 705.6 1020.32 701.65 1021.4 697.72 1020.66 693.78 1023.27 689.86 1021.57 685.91 1022.24 681.98 1022.46 678.04 1024.11 674.11 1020.51 670.15 1020.88 666.21 1024.13 662.29 1020.86 658.33 1021.46 654.39 1022.6 650.46 1020.49 647.06"/><path class="cls-8" d="M1022.55,674c-.29-1-4.06.21-4.41-.82s4.21-3.59,3.42-4.33-2,.19-3-.1-1,0-1.91-.52,1-2.2.28-2.92-.88-1.63-1.75-2.18-2.5,1.68-3.47,1.31-1.52,1.58-2.53,1.35-.53-4.64-1.63-4.74-.81,2.65-1.71,2-.29-.48-.85-1.54-3.2.73-3.93-.23,1.23-2.35.44-3,.24-3.32-.73-3.73-2,.1-3.08,0-1.29,4.11-2.37,4.1-1.09-1.47-2.21-1.4-1.66,1.27-2.67.8c-.81-.37-1-1.13-1.47-1.91s-.24-.88-.66-1.66,1.38-3.39.53-3.66c-1.15-.35-1.65,2-2.82,2.29a10.65,10.65,0,0,1-2.37.44c-1,.09-1.13,1.38-2.15,1.29s-1-1.12-1.89-1.61c-1.06-.57-2.7.79-3.49-.11s.49-1.21-.58-1.75-.17-1.34-1.2-1.37-1-.56-2-.67-1.23,1.27-2.22,1.1-.72-2.25-1.72-2.31-1.09.25-2.12.29-1.34,2.3-2.35,2.09a8.07,8.07,0,0,1-2.26-1c-1-.45,0-4.25-1.07-4.33s-1.17,2.39-2.21,2.68-.81,2.59-1.88,2.7-1.28-1.55-2.28-1.63-1.43.8-2.38.49.6-4-.39-4.56-1.62-.12-2.71-.44-1.53,4.41-2.54,4.37-.58-.93-1.59-.79-.32,1.12-1.32,1.44-1.92-.42-3-.39-1.88.6-2.92.32-.09-5-1.16-5.07-1.12,1.65-2.13,1.77-1.32-2.75-2.34-2.64-.75,2.52-1.76,2.62.35,3.26-.57,3.69-.7-1.26-1.27-.62-.52.7-1.08,1.34-1.46.36-2.27.67-1.17-2.87-2.2-2.9-1.09-1-2.12-1-1,2.59-2.07,2.63-1.12-.4-2.14-.29-.56,2.88-1.55,3.07-1.34-1.55-2.31-1.26-2-2.22-2.93-1.84,2,5.62,1.19,6.2-4.86-4-5.63-3.15,2.1,4.79,1,5.12a6,6,0,0,1-3.21.08c-1.17-.23-.64-1.86-1.82-1.68-1,.15-1.1-.47-2,.06s.74,2.79-.09,3.39-1.53-.53-2.32.14-2.62-2.84-3.57-2.44.36,5.4-.75,5.53-.74-.87-1.77-.44.49,1.41-.33,2.08-4-3.78-4.87-3.26-.25,1.17-1.24,1.52-1.88-.24-2.72.39-1.05,1.34-1.76,2.25,1.56,2.88.71,3.66-3.3-2.89-4.21-2.31.63,1.51-.43,1.71c-.86.15-1,3.72-1.8,3.45s-.7-.68-1.54-.94-.05.62-.92.74.28.47-.56,1-1.68,1.49-2.65,1.65-1.68-2.54-2.68-2.74-.49-.39-1.46-.08.77,1.75-.07,2.55-2.81-1.63-3.91-1.27-.42-1.1-1.4-1.3-.61-1.3-1.58-1.55-1.56,2.12-2.51,1.82-1.1-1.44-2.1-1.36.25,3.92-.71,4.37-1.85-3-2.91-3.06-2.16,2.63-3.07,2,.17-1.35-.91-1.53-1.27-2.73-2.26-2.43-.15,0-1.18-.15-2.73,4.6-3.67,4.07-.06-1-1.11-1.27-.29-2.87-1.29-2.89-1.08,1.44-2.08,1.38-1.1.64-2.1.55-.8-1.9-1.79-1.77-2-2.44-3.06-2.06,0,3.22-1.08,3.56S824,670.67,823,671s-1.08-2-2.15-1.87-1,4.21-2,4.07-.16-3.46-1.11-3.76-.32-1-1.28-1.48-1.71,1.12-2.65.61-2.17,1.64-3.12,1.09.35-3.82-.71-4.11-1.51,3.38-2.52,3.39-1.07-.46-2.07-.51-1.29,1.8-2.28,1.68-1-6.7-2-6.58.36,6.7-.69,7-2.26-.27-3.35-.44.48-4-.45-4.69-1.1-2.58-2.21-2.86-1.44,5.89-2.46,6.05-1.29-1.87-2.29-1.63a18.7,18.7,0,0,0-2.07.58c-1,.34-1.21-.7-2.31-.63s-1.25,2.22-2.24,2-.63-1.85-1.55-2.25-2.39,1.56-3.33.91,1-6.37-.16-6.5-1.84,2.6-2.89,3-.35,2.84-1.47,3-1.11-2.87-2.11-2.92-.94.11-1.93,0-.72-1.59-1.73-1.75-.24.45-1.16,0-3.91,3.9-4.75,3.15,1.77-5.78.68-6-1.32,3.92-2.37,4.24-1.07,1.28-2.16,1.43-1.09-4.38-2.05-4.43-1.75,5.27-2.68,5,.55-4.84-.37-5.27-1.15-1.38-2.14-1.59-1.5,3.28-2.47,3.3-1.17.94-2.14.82-1.41.6-2.39.34-.32-2.38-1.34-2.36-1.65-2.48-2.6-2.19-.41,2.23-1.33,2.63-1.27-.09-2.17.42-.37.42-1.41.47c-.85,0-1.52,2.36-2.26,1.92s-.09-1.52-.82-2-.63-2.16-1.46-1.94a4.47,4.47,0,0,0-2.61,1.28c-.81.84,1.72,3.68.79,4.4-.76.59-3.07-3-3.93-2.58s-.1,1.74-1,2.09-.33,2.21-1.25,2.45-1.2-.78-2.13-.58-.79,1.22-1.76,1.39-.79,1.37-1.76,1.53-1.53-3.21-2.53-3.07a11.36,11.36,0,0,0-2.07.5c-1,.27-1.67-1.1-2.57-.7s-.68,1.19-1.55,1.65-1.36-.11-2.2.42.26,2.23-.62,2.7a19.43,19.43,0,0,1-1.77.88c-.92.41-2.37-1.8-3.22-1.26s1.77,4.17,1,4.83-2.77-1.46-3.45-.74.25,1.65-.36,2.46-1.54-.69-2.39-.11,1.14,5.36.12,5.65-2.17-3.39-2.92-2.65,1.45,1.72,1.06,2.81-4.09-.65-4.66.36,1.7,2.21,1,3-1.15.28-1.9.94-.09,1.55-.91,2.1-1.93-2.52-2.88-2.26c-1.16.33-.49,1.95-1.7,2s-2.08-1.32-3.16-.78-.24,2.09-.81,3,1.27,3.15.4,3.72a6.87,6.87,0,0,1-2.84.82c-1.05.18-1.36-2.11-2.18-1.43s.53,1.29.06,2.37-3.14-.67-3.89.24c-.63.76.68,1.68-.17,2.2s-.77,0-1.75.17c-1.17.19-.91.39-2.09.21s-1.43-.66-2.55-.29a4,4,0,0,0-2.26,1.18c-.71.81-.32-.12-1.32.27s.18-1.32-.87-1.43-1.27,4.06-2.32,4.21.17,2.14-.73,2.54-1.55-1.11-2.44-.71-.94.37-1.87.8-1.63-3.1-2.65-3-.65,1.8-1.67,1.55-1.56-3.43-2.61-3.31,0,4.92-.92,5.42-1.91-1.76-2.92-1.41-.76.09-1.74.26-.65,1.22-1.64,1.11-1.53,1.44-2.56,1a4.51,4.51,0,0,0-1.82-.35c-1-.13-.8-1.48-1.79-1.34s-1.61-1.31-2.52-.9-.94,1.19-1.83,1.9.7,3.23-.31,3.78c-.84.47-.89,1.62-1.81,1.91s-1.73-4.88-2.7-4.91c-1.18,0-.58.22-1.71-.14s-1.86-2.23-3-2.18c-1,0-.1,5.28-1,5.72s-1.84-1.46-2.76-1-1.48-.74-2.39-.3-.65.74-1.59,1.11-.49,1.52-1.47,1.84-1.82-1.23-2.74-.75-.38,1.71-1.19,2.32-2.06-.44-2.76.29,3.08,3.88,2.46,4.77-3.16-1.65-4.12-1.15-.32,3.86-1.49,3.91-2.53-5.53-3.61-5.07A8.55,8.55,0,0,0,592,720c-.71.74,1.52,2.79.71,3.41s.33,2.52-.54,3-3.31-2.72-4-2-.16,1.78-.73,2.8.65,1.58-.41,2.08-.85-.6-2.06-.79a4.3,4.3,0,0,0-2.64.31c-1,.34,1.72,3.08,1,3.89s-4.21-2.84-5.08-2.2.1,1.47-.82,1.85-.28,2.47-1.25,2.7-1.47-3.1-2.49-3S573,735,572,735.14s-.57,1.33-1.53,1.58-1.45-1.78-2.33-1.34-1.71-.57-2.56.07.24,2.68-.8,2.93-.87-2.84-1.93-3-1.46-1-2.53-1-.89,2.83-1.84,3.07-1.38-1.62-2.34-1.4-.74,1.09-1.71,1.29-1,.38-1.92.63-.09,3.28-1.05,3.58-1.91-4.88-2.92-4.79-.69,3.06-1.69,3-.84-.92-1.82-1.11-1.05.2-2-.07-.62,2.05-1.62,2.25.87.5.19,1.11-4.56-3.72-5.24-3.12,1.37,4.19.46,4.16c-1.17-.05-.33-2.39-1.29-3.07a6.42,6.42,0,0,0-2.33-1c-1-.33-1.2-2.17-2.2-2.16s-1-.47-2-.47-1,.62-2,.61-1.65,4.94-2.63,4.68c-.8-.21.57-3.73-.14-4.17s-2-.84-2.59-.3c-.82.69,1.48,1.68,1.43,2.76s.64,2.86-.26,3.45-1.8-2.76-2.94-2.92c-1-.14-1.06,2.09-2.05,2.14s-1.38,1-2.36.83-.29-3.09-1.25-3.48-.92-.91-1.92-1.18-1.32,1.09-2.31,1-.63,1.65-1.62,1.82-1.13-1.26-2.09-.8-1.14-.26-2.2-.11-1.18,1.76-2.18,1.56-.69-3.22-1.71-3.25-.61,4.74-1.6,4.88-.31-.18-1.24.18-2.87-3.64-3.72-3.06.22,2.37-.77,2.6c-1.15.27-1.15-1-2.32-1.08s-1.93-.91-2.89-.22-.32,1.74-.67,2.94.33,1.23-.64,2-.71,3-1.87,3,.61-.63-.28.1-2.71-1.44-3-.29-1.63-.57-2.42.3.7-.11-.31.14-.21,2.81-1,3.42-3.49-1.23-4.15-.27.83,1-.14,1.59c-.72.48.47,2.24-.39,2.28s-1-3.14-1.89-3.1-.46,3.15-1.16,3.66-.71.29-1,1.13-1.95.21-2.28,1.06.52.61-.13,1.25.85,3.2-.16,3.69-2-1.64-3-1.14c-.75.37.39,2.54-.35,2.93s-1-.79-1.56-.17c-.95,1,.68-.23.89,1.15.14.92-2-1.64-1-1.52s1,5,1.93,4.85,1.31-1.18,2.31-1.6-.21-4.92.86-5.1,1.31,4.12,2.31,4.21.35.75,1.29,1.09c1.11.4.23.86,1.23,1.49s2.29,1.75,3.48,1.8,1.63-2.71,2.63-3.26.22-2.12,1.27-2.55.66-1.78,1.66-2.06,1.61,2.81,2.64,2.75,1.33-3.75,2.33-3.6.49,3.24,1.47,3.47,1.16-.34,2.16,0S490,766.62,491,767s-.54,4.74.46,5.1,1.65-.4,2.7-.21,1.34-2.85,2.34-2.86.89,4.26,1.89,4.29,1.31-6,2.31-6,1.06,4.57,2,4.41.33-3,1.33-3.4,1.5,3.27,2.57,3.21.59-1.82,1.59-1.52,1.48,1.06,2.5.83c1.21-.27,2.49.52,3.49-.22s-.93-3.46.26-3.83c1-.29,1.2-1.6,2.2-1.49s1.24-1.62,2.24-1.5.8,1.85,1.8,2,1,.47,2,.67.91.89,1.91,1.15,1-.06,2,.1.72,3.21,1.72,3.26,1.11-3.1,2.11-3.09,1,2,2,1.93a8,8,0,0,0,2.13-.15c1.05-.22.94-.86,1.94-1.25s1-4,2.08-4-.52,6.12.48,6.63,2-.35,3.08-.15,1.41-.64,2.41-.79.78-1.82,1.79-1.92,1-.2,2-.25,1.12-1.39,2.12-1.36.74,3.57,1.74,3.69,1.47.78,2.46.62-.1-4,.9-4.48a7.39,7.39,0,0,1,2.64-.57c1-.13,1,2.5,2,2.71s1.18-.66,2.16-.37.13,2.66,1.13,3a9.62,9.62,0,0,0,2.55,1c1,.14,1.21-3.61,2.21-3.73s.68-1.42,1.67-1.61,1,.31,2,0,1.66,4.12,2.69,4,.83-3,1.83-2.93,1.57-2.19,2.55-2-.15,4.46.85,4.82a7.12,7.12,0,0,0,2.48.57c1,.05,1.16-1.33,2.16-1.59s1.6,1.07,2.55.67,2,.69,3,.11-.81-4.21.34-4.33-.15,3.88.85,4.26,2.3-3.89,3.36-3.76,1.19,4.33,2.19,4.21.56-2.72,1.56-2.62,1.14-.57,2.14-.26.66,3,1.71,3.08a9.88,9.88,0,0,0,2.47-.26c1-.12.71-2.48,1.69-2.69s.18-2.92,1.18-3.22,2.12.24,3.15.39.15,3.41,1.15,4,1.46,1.34,2.63,1.27,1-1.63,2-2.35,1.08,0,2.27-.26c1-.26.74-1.45,1.74-1.26s.91.88,1.93.86,1.56,2,2.56,1.8.36-.62,1.38-.59.4.34,1.4.62,1.62-1.92,2.59-1.57.37,1.89,1.37,2.31,1.6-.85,2.67-.64,1.07,2.52,2.07,2.5,1-2.28,2-2.57c1.11-.33.37-1.74,1.37-2.32s.66-2.71,1.77-3a9.76,9.76,0,0,1,2.86-.11c1,0,.84,4.83,1.84,4.89s.93-.13,1.93,0,1.67-3.2,2.64-2.92,1.7-.48,2.7,0-1.13,6.08-.08,6.41,2-3.16,3-3,.75-.11,1.75-.31,2.08,1.94,3.08,1.37.87-.05,1.95-.46.38-1.19,1.38-1.37,1-2.82,2-2.61-.85,4.36.15,5a9.14,9.14,0,0,0,3.15.94c1,.19,1.4-3,2.4-3.21s1.14.73,2.15.62,1,1.28,2,1.26,1.32-4.26,2.31-4.1,1.57-.33,2.57,0,.11,1.51,1.16,1.55.76.91,1.76.66,1.69,2.75,2.69,2.53.64-1.71,1.64-1.9,1-3,2-2.87.9,1.86,1.9,2.28,1.64-2,2.69-1.66,0,4,1,4.13,1.33,2.26,2.34,2.2.35-5,1.35-5.27,1.62,3.67,2.65,3.59.85-2.55,1.85-2.43.71-.89,1.7-1.06,2.47,3.67,3.47,3.2-.49-4.1.59-4.37,1.25,1.72,2.25,1.68,1.39-2.57,2.35-2.3c1.13.33,1.91-.15,2.91.46s-.81,5.32.34,5.51.76-4.61,1.76-4.89,2.5,4,3.45,3.58,1-1.14,2-1.72-.06-5.59,1.1-5.62,1.23,3.29,2.23,3.81,1.27-.41,2.33,0,1.08-1.62,2.08-1.45.59,2,1.6,2.13.82,2,1.82,2,2,2.69,3,2.37c1.18-.39-1.16-5.22-.16-5.94s2,3,3.23,3-.7.32.3,1,2.54-4.25,3.77-4.23,2.64,5.17,3.64,4.49-.67-1.25.53-1.37,1.31-3.17,2.31-2.69.87-.86,2-.66.62,3.89,1.62,3.78a8.83,8.83,0,0,0,2.15-.49c1.07-.32.81-1.26,1.81-1.76s.82.6,1.94.57,2.17-4,3.17-3.57-.24,2.68.86,2.76,1.05,1,2.05.69,1,0,2-.11.85-1.06,1.85-1.11,1-.63,2-.58a16.12,16.12,0,0,1,2,.31c1,.15.82,2.18,1.83,2.24s1.08-1.47,2.08-1.49,1.55-1.92,2.51-1.63c1.12.33-1.24,5.11-.24,5.73a8.22,8.22,0,0,0,3.77,1.3c1.18,0-.41-5.67.59-6.31s2.25,2.38,3.43,2.34,1.16-1.27,2.16-.71.09,2.87,1.17,3.25,1.23,1.11,2.23,1.25,1.29-2.71,2.28-2.93c.82-.18-.92-2.19-.25-2.71s2.74,2.15,3.41,1.63.19,1.69,1,1.67c1.11,0,1-2.8,2-2.33s0,2.89,1,3.31,2.68-4.15,3.68-3.81-.26-.33.79-.47c.86-.11.56,2.14,1.23,1.58s-.22-1.61.45-2.17,2,1.27,2.84,1.18c1.07-.12,2.08-3.2,3.08-2.82s-.39,7.09.68,7.14.58-5.8,1.58-6.08,1.9,4,2.93,3.84.65-4.16,1.65-4.16,1.22,4.5,2.21,4.42.51-4.76,1.51-4.91,2.12-1.84,3.11-1.61c.83.2-.73,4.63-.06,5.18s1.31-.24,2,.3.45,2,1.32,1.92c1.17,0,2,.3,3-.32s0-1.77,1.17-2c1-.22.61.42,1.61.6s1.19-1,2.2-.89.86,3,1.86,3,.94-.59,1.94-.5.81.94,1.81,1.07,1.34-2,2.35-2,1-2,2-2a7.16,7.16,0,0,1,2.18.36c1.06.19,2-1.67,3-1.27s-.17,3.76.91,3.73,2.31,2.21,3.31,1.75-.38-2.52.72-2.55,1.11-1.19,2.11-.79,1.24-1.86,2.31-1.69.37.8,1.37.71,1.25,3.15,2.25,3.09.91-1.9,1.91-1.92,1.08-1,2.08-1,.59,4.72,1.59,4.83,1.83-1.12,2.79-1.41.88-1.38,1.54-2,1.29.07,2-.54-.87-2.69,0-2.8c1.07-.14.6,1.65,1.6,2.05s1.38-1.94,2.46-1.91,1.68,3.28,2.68,2.93.3-4.55,1.36-4.51.12,4.08,1.12,4.52,1.6,2,2.69,2,.14-6.16,1.14-6.52,2,1.07,3,1.14,1.94-.65,2.94-.16-.26,4.31.84,4.43.67-3.52,1.68-3.79,1.57,4.84,2.6,4.8,1.23-5,2.23-4.85.66,3.17,1.68,3.14.64-2.59,1.64-2.83,1.81-2.33,2.82-2.16.25,4.07,1.25,4.64,1-.45,2.18-.53-.2-1.34.8-2.05,1.9-.62,3.12-.8c1.07-.17.94,2.15,1.94,2.57s1.21,3.47,2.29,3.45,0-5.81,1-6.26a6.2,6.2,0,0,1,3.25-.68,7.26,7.26,0,0,1,3.43,1.08c1,.74-.37,1.62.82,2,1,.28.55,2.07,1.55,1.9s.93-1.63,1.94-1.62,1,.8,2,1,1.12,3.17,2.13,3.09,1.47-.86,2.47-1.2.3-2.86,1.35-2.86a4.9,4.9,0,0,1,2.21.38c1,.35.84,3.09,1.89,3s1.26-1.45,2.26-1.91,0-3.76,1-4,1.91,5.58,2.91,5.5.31-1.64,1.29-1.42,2.95-4.4,3.95-3.87-1,5.15.1,5.43a8.23,8.23,0,0,0,2.4.65c1,0,.44-3.74,1.39-4s1.42,1.54,2.09,1-.11-1.5.55-2.05a3.47,3.47,0,0,1,1.89-.68,4.19,4.19,0,0,1,2.19.11c1,.17,1.93-1.57,2.86-1.15,1.13.51.27,2.53,1.27,3.26s.58,1.44,1.78,1.77c1,.27.94-.46,1.94-.64s.68-1.59,1.67-1.81.53-1.8,1.53-2.06,1.82,2.77,2.86,2.8.1,3.08,1.11,3.4a12.55,12.55,0,0,0,2.46.9c1,.15,1.48-1.89,2.48-1.92s.93-1.25,1.88-1.56c1.12-.35.26-1.71,1.26-2.32s2.21,2.23,3.34,1.9c1-.28.58-5.09,1.58-5.06s.9,4.08,1.9,4.11,1-.15,2-.12,1.25-3.49,2.25-3.41,1.17-.07,2.17.06.42,3.86,1.39,4.14.61,1.07,1.61,1.52,1.76,1.45,2.85,1.31.76-2.48,1.76-3.2,1.08.81,2.31.64c1-.13-.56.49.3,1s3.56-4.56,4.42-4.1-.26,4.94.52,4.35-1.92-.85-2.27-1.7-.61-.74-1-1.59,1.47-1.41,1.42-2.33-2.94-1.59-2.69-2.57-.13-.76,0-1.77,3.54-.53,3.57-1.51-2.1-.69-2.27-1.66,1.26-1.23.88-2.22-1.72-1.07-1.65-2.12,4.51.64,5-.35-.45-2-.18-3.09-3.29-1.36-3.32-2.34,4-1,4-2,.92-.77,1-1.75-1.88-1.33-1.93-2.31-1-1-1.15-2-3.12-.42-3.32-1.4.49-1.11.3-2.1,1.46-1.31,1.46-2.32-3.22-1.62-3-2.61.67-.75.81-1.74,3-.57,3.07-1.56,2.63-1.56,2.38-2.52c-.29-1.12-.14-2-.75-3s-3.56.78-3.9-.33c-.29-.94,1.94-1,1.94-2s-4.5-1.65-4.25-2.6,0-1.89.54-2.87,3.74.67,3.77-.44a3.1,3.1,0,0,0-.48-2.11c-.47-1,1.8-.55,1.86-1.64,0-.87-4.26-2.33-3.7-3s2.71,1.2,3.28.54-1.52-.83-1.51-1.7,1.4-.39.85-1-.67-.56-1.22-1.22-1.84-.83-1.81-1.68c0-1.16-.31-2.2.3-3.19s5.62.52,5.66-.64-2.43-1.36-3-2.34-2.35-.56-2.34-1.68,1.81-.68,2.36-1.67,1-1.16.93-2.29-2-.27-2.71-1.25.62-1.55.52-2.74-.68-1.06-.17-2.05,3.86-.11,4.1-1.2-4.06-1.52-4.13-2.51,1.47-1.11,1.35-2.1-4.06-1.19-4-2.15S1022.8,674.94,1022.55,674Z"/><ellipse class="cls-9" cx="343.08" cy="369.95" rx="61.8" ry="58.45"/><ellipse class="cls-10" cx="343.41" cy="363.18" rx="179.06" ry="169.35"/><ellipse class="cls-11" cx="343.83" cy="370.1" rx="306.15" ry="266.07"/><ellipse class="cls-12" cx="251.63" cy="27" rx="374" ry="325.04"/><rect class="cls-13" x="-5.38" width="1031" height="768.44"/></g></g></svg>
