<svg xmlns="http://www.w3.org/2000/svg" viewBox="0 0 296.27 304.68"><title>thermo3</title><g id="Layer_2" data-name="Layer 2"><g id="Layer_1-2" data-name="Layer 1"><text class="cls-1" transform="translate(141.52 12.01)">60</text><text class="cls-2" transform="translate(194.52 22.01)">70</text><text class="cls-2" transform="translate(274.52 101.01)">90</text><text class="cls-2" transform="translate(241.52 53.01)">80</text><text class="cls-2" transform="translate(84.52 24.01)">50</text><text class="cls-2" transform="translate(39.52 56.01)">40</text><text class="cls-2" transform="translate(8.52 100.01)">30</text><text class="cls-3" transform="translate(138.52 301)">-20</text><text class="cls-1" transform="translate(0 157) scale(0.89 1)">20</text><text class="cls-2" transform="translate(11.01 214)">10</text><text class="cls-2" transform="translate(85.01 291)">-10</text><text class="cls-2" transform="translate(40.01 260)">0</text><text class="cls-1" transform="translate(280.54 158) scale(0.82 1)">100 </text><text class="cls-2" transform="translate(266.53 212)">110</text><text class="cls-2" transform="translate(234.53 260)">120</text><text class="cls-2" transform="translate(194.53 289)">130</text><image width="256" height="256" transform="translate(19.02 26.02)"/><path class="cls-4" d="M209.83,87.35l-21.17,9.22-37.89,43.74A13.16,13.16,0,0,0,148,140a13,13,0,0,0-12.19,17.53l-71.3,82.3,78.17-75a13,13,0,0,0,17.39-16.68l42.75-41ZM151.25,159a6.93,6.93,0,1,1,2.53-9.46A6.93,6.93,0,0,1,151.25,159Z"/><circle class="cls-4" cx="148.02" cy="153.02" r="3"/></g></g></svg>
