<svg xmlns="http://www.w3.org/2000/svg" xmlns:xlink="http://www.w3.org/1999/xlink" viewBox="2 0 1000 760"><defs><style>.cls-1{isolation:isolate;}.cls-2{fill:url(#radial-gradient);}.cls-3{fill:#2e27ba;}.cls-4{fill:#23239e;}.cls-5{fill:#1d1d7f;}.cls-6{fill:#181863;}.cls-7{fill:#0c0c33;}.cls-8{fill:#0d0826;}.cls-10,.cls-11,.cls-12,.cls-9{mix-blend-mode:color-dodge;}.cls-9{fill:url(#radial-gradient-2);}.cls-10{opacity:0.33;fill:url(#radial-gradient-3);}.cls-11{opacity:0.42;fill:url(#radial-gradient-4);}.cls-12{opacity:0.43;fill:url(#radial-gradient-5);}.cls-13{mix-blend-mode:soft-light;fill:url(#radial-gradient-6);}</style><radialGradient id="radial-gradient" cx="373" cy="308.5" r="985.07" gradientUnits="userSpaceOnUse"><stop offset="0" stop-color="#ffc16a"/><stop offset="0.2" stop-color="#ffa6d9"/><stop offset="1" stop-color="#826dff"/></radialGradient><radialGradient id="radial-gradient-2" cx="489.48" cy="291.51" r="82.48" gradientTransform="translate(0 5.01)" gradientUnits="userSpaceOnUse"><stop offset="0.42" stop-color="#fff"/><stop offset="0.51" stop-color="#cfcfcf"/><stop offset="0.64" stop-color="#868686"/><stop offset="0.76" stop-color="#4c4c4c"/><stop offset="0.87" stop-color="#232323"/><stop offset="0.95" stop-color="#090909"/><stop offset="1"/></radialGradient><radialGradient id="radial-gradient-3" cx="492.75" cy="287.97" r="238.96" gradientTransform="translate(0 5.21)" gradientUnits="userSpaceOnUse"><stop offset="0" stop-color="#ffff04"/><stop offset="0.12" stop-color="#fbfb04"/><stop offset="0.25" stop-color="#efef04"/><stop offset="0.37" stop-color="#dada03"/><stop offset="0.5" stop-color="#bebe03"/><stop offset="0.63" stop-color="#999902"/><stop offset="0.76" stop-color="#6c6c02"/><stop offset="0.88" stop-color="#373701"/><stop offset="1"/></radialGradient><radialGradient id="radial-gradient-4" cx="717.53" cy="348.9" r="304.81" gradientTransform="translate(-502.81 -147.62) scale(1.41 1.29)" gradientUnits="userSpaceOnUse"><stop offset="0.01" stop-color="#f5ffbf"/><stop offset="0.57" stop-color="#ff6d04"/><stop offset="0.57" stop-color="#fc6c04"/><stop offset="0.71" stop-color="#923e02"/><stop offset="0.82" stop-color="#431d01"/><stop offset="0.9" stop-color="#130800"/><stop offset="0.94"/></radialGradient><radialGradient id="radial-gradient-5" cx="746.55" cy="-71.28" r="434.38" gradientTransform="translate(-502.81 -118.13) scale(1.41 1.29)" gradientUnits="userSpaceOnUse"><stop offset="0.01" stop-color="#f5ffbf"/><stop offset="0.57" stop-color="#fff"/><stop offset="0.57" stop-color="#fcfcfc"/><stop offset="0.71" stop-color="#929292"/><stop offset="0.82" stop-color="#434343"/><stop offset="0.9" stop-color="#131313"/><stop offset="0.94"/></radialGradient><radialGradient id="radial-gradient-6" cx="683.5" cy="384.5" r="553.92" gradientUnits="userSpaceOnUse"><stop offset="0" stop-color="#fff"/><stop offset="0.09" stop-color="#f8f8f8"/><stop offset="0.22" stop-color="#e5e5e5"/><stop offset="0.38" stop-color="#c6c6c6"/><stop offset="0.55" stop-color="#9a9a9a"/><stop offset="0.74" stop-color="#626262"/><stop offset="0.94" stop-color="#1e1e1e"/><stop offset="1" stop-color="#0a0a0a"/><stop offset="1"/></radialGradient></defs><title>Artboard 1</title><g class="cls-1"><g id="Layer_1" data-name="Layer 1"><rect class="cls-2" x="1" width="1364" height="769"/><path class="cls-3" d="M1365.5,345.17V768.5H.5L1,328.61c29.45-17.73,53.1-20.63,69.49-19.87,33.67,1.58,45.56,19.07,77.09,14.15,24.44-3.81,28.26-16,50.62-17.83,24.65-2,45.73,10.77,59.28,21.37a149.71,149.71,0,0,0,94-10c13.08-5.93,26-13.89,40.11-14.3,27.66-.82,49.59,26.86,76.86,32,15.23,2.89,30.73-1.51,45.69-5.8s30.53-8.53,45.71-5.3,68.15,30.35,85.88,18.18a75.56,75.56,0,0,1,61.47-11.09c7.47,1.94,14.64,5,22.06,7.2,19.56,5.67,76.87.31,85.22-1.57,34.7-7.82,47.64-2.51,80.64-5.45,51.94-4.64,57-19.15,104.86-20.25,17.58-.41,12.14,2.93,39.55,4.48,30.61,1.74,92.33.69,142.19-10.89,6.35-1.47,20.06-4.87,33.75,1.21,12,5.35,10.35,11.92,20.83,17.39,22,11.48,45.22-9.12,60,3.51,5,4.25,3.69,7.76,7.51,13.07"/><path class="cls-4" d="M1365.56,362.77s-3.77,15.41-7,14.56c-21.62-5.63-38.61-26.74-60.3-32-23.68-5.78-47.6,8.55-66.67,26.09-7.65,4.13-19,8.61-31.75,6.72-6.66-1-7.51-2.16-19.67-7.46a103.75,103.75,0,0,0-43.14-8.74c-6,.1-12.21.8-17.46,4.23-4.64,3-8.16,7.91-12.2,12-9,9-21,13.82-32.79,13.17l0,.2c-21.68.08-43.33-7.67-61.31-22-6-4.8-11.76-10.36-18.55-13.44a29,29,0,0,0-23-.43c-10.93,4.49-20.57,15.75-32.06,14.1l4.45.1a207.25,207.25,0,0,1-57.56-1.72c-36-6.2-44.78-17.81-65.91-14.71-27.45,4-31.85,26.46-59.52,41.94-19.14,10.7-49.82,18.33-100.51,4.8A181.49,181.49,0,0,0,578.44,376c-27.78-1.24-54.65,0-77.5,14.61-9.42,6-18,13.89-27.71,19.22s-21.27,7.95-31.12,2.94l-5,1.29c-10.53-5.27-26.2-11-44.41-9.35-24,2.24-37.22,16-55.77,26.69-18.27,10.51-46.82,20.95-91.06,18.93A112.35,112.35,0,0,0,201,426c-17.95-4.79-32.18-3.49-47.39-2.28-21.39,1.7-52.37,3.82-92.79,5.43-.91-.75-17.11-13.54-36.51-7.41-18,5.67-23.94,22.82-24.7,25.53a89.63,89.63,0,0,0-1.91,9.55L.5,768.5h1365V378"/><path class="cls-5" d="M1366.26,541.66c-21.71-11.49-20.27-47.84-40.93-61.27l-2.59-3.64c.25-14.56-19.33-19.08-27.33-31-3.13-4.67-4.37-10.45-7.26-15.29-3.84-6.42-10.26-10.67-16.84-13.86a88.59,88.59,0,0,0-84.17,4.37c-6.64,4.1-12.85,9.13-20.1,11.88s-16.1,2.78-21.91-2.52c-2.24-2-3.91-4.76-6.39-6.46-3.17-2.16-7.17-2.35-11-2.45-16.76-.42-34-.22-49.66,5.95s-29.8,19.52-32.82,36.76l6.88-16q-7.25,12.15-14.51,24.3a16,16,0,0,1-4,5.05c-2.32,1.66-5.28,1.87-8.09,2l-27.92,1.59c-3.76.22-7.75.51-10.81,2.8-6.23,4.68-5.29,14.42-7.43,22.12-2.5,9-9.88,15.85-18.08,19.71s-17.25,5.15-26.16,6.41l5.15-.24c-10.12,6.9-25.26,1.28-34.57,9.32-2.78,2.41-4.68,5.82-7.53,8.15-4.56,3.73-10.78,4.15-16.57,4.19-9.11,0-18.62-.61-26.52-5.35-11.56-6.94-17.86-21.55-30.1-27.09-6-2.72-12.84-2.92-18.81-5.72s-11.07-10.06-8.24-16.22l-1.89,1.94c-10.23-12.33-21.37-24.34-35.34-31.67-24.4-12.82-53.75-9.46-80-1.6-4.45,1.32-9,2.79-13.6,2.6-16.32-.7-30.1-21.43-45.29-15.17l5,3.73a90.38,90.38,0,0,0-45.79-16.55c-10.42-.74-21.34.29-30.84-4.23-5.53-2.62-10.18-7-15.72-9.53-15.76-7.32-34.27,1.41-47.24,13.26-10.76,9.82-19.74,21.93-30.94,31l.55-1-7.8,6.15a70.3,70.3,0,0,0,7.25-5.2c-6.93,11.83-19.49,19.21-32.45,22.44-13.29,3.32-27.16,2.8-40.82,2.28-10.66-.42-21.64-.91-31.32-5.6-4.27-2.07-8.2-4.93-12.67-6.51-9.09-3.21-19.75-.06-26.31,7.15a19.8,19.8,0,0,0-1.31,1.57,23.17,23.17,0,0,0-2.17,3.38l2.17-3.38,1.28-2,0,.43c.55,10-8.22,18.14-17.12,22.14s-19.18,5.88-26.93,12.18c-4.23,3.44-7.48,8-11.62,11.59-10,8.58-23.78,10.18-36.69,10-21.16-.24-42.1-4.19-62.92-8.13-5.58-1-11.32-2.17-16.07-5.41-3.08-2.1-5.65-5-9-6.72-7.34-3.69-17.71-1-23.47-6.23a11,11,0,0,1-1.6-1.84l-.29,1.7,1.89.14,3.8.26a119.8,119.8,0,0,0-38.19-22.64c-5-1.82-10.23-3.31-14.92-6-5.26-3-9.69-7.36-14.77-10.68-14.21-9.33-32-9.76-48.78-9.79L.5,768.5h1365Z"/><polygon class="cls-6" points="1362.48 602.95 1357.84 601.8 1356.59 597.08 1353.2 594.86 1350.16 592.24 1347.94 588.65 1345.03 585.86 1341.04 584.34 1337.19 582.67 1335.83 578.07 1332.04 576.32 1328.92 573.78 1324.6 572.65 1322.52 568.9 1320.38 565.22 1317.17 562.79 1312.53 562.04 1310.05 558.75 1306.72 556.47 1303.59 553.93 1300.61 551.23 1298.56 547.45 1294.84 545.62 1291.84 542.94 1288.24 540.97 1285.72 537.74 1281.57 536.2 1278.47 533.43 1275.51 530.38 1272.06 527.96 1267.89 526.85 1264.9 523.9 1261.22 522.16 1257.06 521.49 1253.36 519.9 1250.36 516.49 1246.12 516.23 1241.9 516.12 1238.29 514.15 1234.28 513.49 1230.85 510.4 1226.75 510.05 1222.3 511.83 1218.4 510.79 1214.35 510.76 1210.44 509.62 1206.38 509.8 1202.53 506.87 1198.43 507.54 1194.42 505.75 1190.33 507.11 1186.31 509.31 1182.25 508.48 1178.22 508.7 1174.14 508.27 1169.96 506.95 1165.85 506.79 1161.95 508.68 1157.89 508.98 1154.09 511.08 1149.93 510.76 1145.93 509.24 1141.88 512.77 1138.09 508.93 1133.88 511.07 1129.85 510.74 1126.04 509.23 1122.33 507.62 1117.98 507.86 1114.54 505.55 1112.16 501.56 1107.12 502.15 1104.04 499.45 1100.51 497.45 1099.86 492.41 1096.74 490.05 1094.4 486.92 1091.82 484 1088.06 482.06 1087.39 477.52 1084.42 474.89 1080.12 473.39 1077.8 470.22 1074.76 467.66 1072.09 464.78 1069.29 461.82 1067.45 457.95 1064.26 455.41 1060.45 454 1057.61 450.49 1053.43 449.29 1049.22 449.06 1045.89 451.75 1042.28 453.28 1040.43 457.23 1035.94 457.84 1034.48 461.95 1031.39 464.34 1027.32 465.68 1024.21 468.04 1023.51 473 1020.46 475.43 1016.47 476.85 1014.18 480.1 1011.62 483.05 1008.15 485.04 1003.89 486.63 1001.86 490.69 998.31 493.01 994.11 494.25 991.74 498.51 987.08 498.27 983.13 498.86 979.46 500.17 975.41 501.31 972.01 498.61 967.64 499.03 964.22 496.88 960.23 495.57 959.36 490.27 953.94 490.45 951.59 487.12 950.4 482.79 948.32 479.39 943.21 478.6 941.51 474.84 939.03 471.77 937.09 468.23 933.48 466.1 931.74 462.4 927.95 460.47 927.48 455.34 923.74 453.4 919.89 451.7 917.88 447.88 914.67 445.44 911.9 442.38 908.54 440.12 903.44 440.71 901.5 436.09 896.96 436.07 893.21 434.71 890.57 430.8 885.75 432.06 882.91 428.19 879.16 426.62 874.78 427.37 870.82 426.89 866.84 426.65 863.09 424.95 859.29 422.86 855.18 423.77 851.18 423.24 847.2 422.99 843.22 424.73 839.23 424.02 835.24 423.38 831.25 422.9 827.28 425.01 823.27 422.69 819.29 423.54 815.32 424.79 811.33 424.23 807.35 424.92 803.38 425.7 799.61 423.85 795.9 424.11 792.05 423.5 788.38 424.67 784.57 425.33 781.54 427.89 778.28 429.94 774.33 431.27 773.28 435.74 769.55 437.54 767.69 440.98 764.45 443.36 764.82 448.32 761.05 450.35 759.13 454.16 754.46 454.83 752.04 458.36 748.31 459.97 745.05 462.44 740.54 462.27 737.32 464.92 733.38 465.89 729.86 467.93 726.55 470.66 722.75 472.05 718.61 472.37 714.93 474.11 710.49 473.35 706.94 475.52 702.94 476.15 699.15 477.55 695.27 478.64 691.26 479.19 687.21 479.6 683.16 480 679.87 483.44 676.22 485.5 672.08 485.53 668.15 486.43 663.71 485.11 660.04 487.15 655.76 486.47 652.4 489.9 648.14 489.31 644.2 490.15 640.35 491.45 636.63 493.36 632.73 494.39 628.59 494.31 624.49 494.41 620.59 495.44 616.96 497.82 613.16 499.33 608.56 496.98 604.66 498.06 600.55 498.1 597.17 501.7 592.98 501.33 588.88 501.41 584.96 502.4 581.16 503.95 577.03 503.9 573.22 505.39 569.11 505.41 565.75 508.94 561.29 507.47 557.87 510.59 553.24 508.5 549.27 509.28 545.75 511.87 542.22 514.22 537.75 513.3 534.04 515 530.39 516.83 526.66 518.57 523.37 521.05 521.11 524.91 516.03 524.91 513.32 528.1 510.86 531.57 506.53 532.67 504.29 536.46 501.22 539.32 497.1 540.45 493.06 541.33 489.51 543.58 485.28 542.75 481.36 542.58 477.3 543.78 473.56 542.04 469.6 541.53 465.8 540.3 461.36 540.28 459.18 535.66 454.79 535.33 451.55 532.88 447.91 531.11 443.59 530.59 439.89 529.08 437.65 524.35 433.1 524.73 429.64 522.38 425.66 521.55 421.91 519.49 417.85 518.6 413.7 518.6 409.62 521.22 405.58 519.29 401.59 519.96 397.77 521.52 393.94 522.59 389.73 522.15 386.24 524.43 382.66 526.16 378.09 526.78 380.04 529.63 376.75 528.52 372.62 529.19 368.67 528.02 364.59 527.53 360.7 529.13 356.4 528.31 353.24 531.95 349.57 533.35 344.8 532.57 341.69 535.4 338.01 537.21 334.71 539.62 331.79 542.49 328.99 545.16 327.69 549.19 325.45 552.37 321.29 553.78 317.5 555.33 314.89 557.98 312.74 561.56 308.29 561.45 304.75 562.95 301.11 565.11 297.04 563.54 292.99 565.54 288.98 564.75 285.14 563.16 281.16 562.55 276.82 563.63 273.11 561.52 268.88 562.17 264.98 561.11 260.91 561.9 257 561.24 252.8 558.79 248.73 559.68 245.21 562.92 240.73 561.59 236.62 562.07 232.61 562.91 228.69 564.02 225.12 566.26 221.43 568.2 217.62 569.97 213.27 568.77 209.43 571.44 205.27 569.72 201.2 569.8 197.03 569.86 193.54 566.54 189.42 568.98 186.48 572.13 181.86 571.46 179.51 576.22 174.9 575.39 171.69 578.22 167.17 577.3 163.76 579.64 159.91 580.63 155.82 580.66 152.35 583.21 148.64 585 144.85 586.71 140.72 586.33 136.71 586.59 132.69 586.58 128.7 587.02 124.7 585.27 120.68 587 116.77 585.63 112.82 585.29 108.85 585 104.57 586.09 101.44 581.9 97.41 581.67 93.53 580.74 89.45 580.32 85.64 579.09 81.64 578.5 78.43 575.41 74.65 574.04 70.27 575.02 66.57 573.72 63.11 571.44 59.19 570.94 55.67 568.69 51.83 567.82 47.58 569 43.58 569.06 39.79 568.06 36.34 564.81 32.18 566 28.13 566.73 24.55 563.83 20.62 563.54 16.66 563.75 12.8 562.68 8.94 561.5 4.9 563.32 -0.83 562.37 1.85 566.88 -0.65 570.88 0.77 574.82 1.34 578.77 -0.02 582.76 0.05 586.72 1.51 590.66 3.13 594.59 2.54 598.56 0.89 602.54 1 606.5 1.56 610.45 0.94 614.42 1.96 618.37 1.73 622.33 0.44 626.31 0.6 630.27 0.56 634.23 1.89 638.18 1.03 642.15 2.02 646.1 0.62 650.08 2.12 654.02 2.93 657.97 4.02 661.92 4.09 665.88 1.36 669.88 1.55 673.84 3.44 677.78 4.14 681.74 0.84 685.75 2.87 689.68 3.29 693.64 1.76 697.63 1.47 701.6 2.18 705.55 3.55 709.5 1.18 713.5 1.62 717.45 3.3 721.39 2.75 725.36 2.07 729.34 4.47 733.27 4.96 737.23 4.42 741.2 3.82 745.18 2.09 749.17 3.04 753.13 4.53 757.07 3.77 761.05 5.3 765 3.28 769.45 7.72 770.71 11.71 767.97 15.7 770.37 19.69 768.84 23.69 768.09 27.68 770.62 31.67 768.48 35.66 769.5 39.65 768.2 43.65 767.58 47.64 770.26 51.63 767.71 55.62 770.23 59.61 769.93 63.6 767.25 67.59 768.82 71.59 768.17 75.58 767.16 79.57 768.2 83.56 769.31 87.55 770.69 91.55 767.81 95.54 770.57 99.53 770.65 103.52 767.11 107.52 770.74 111.51 770.44 115.5 768.27 119.5 767.39 123.49 769.7 127.49 769.58 131.48 769.13 135.48 770 139.47 767.3 143.47 768.51 147.46 769.25 151.45 769.51 155.45 768.92 159.44 768.64 163.43 768.65 167.43 769.77 171.42 768.94 175.41 767.99 179.41 770.88 183.4 770.64 187.39 767.54 191.38 769.83 195.37 768.75 199.37 770.06 203.36 770.57 207.35 768.71 211.34 767.42 215.34 769.35 219.33 770.82 223.32 768.95 227.31 770.4 231.31 767.66 235.3 767.06 239.29 768.5 243.29 767.73 247.28 769.35 251.27 767.18 255.27 770.94 259.26 767.74 263.26 770.32 267.25 767.93 271.25 770.47 275.24 767.82 279.24 767.02 283.23 769.53 287.23 768.95 291.22 769.43 295.21 770.12 299.21 769.51 303.2 769.66 307.19 768.95 311.19 770.62 315.18 770.28 319.17 770.76 323.16 769.45 327.16 768.36 331.15 768.63 335.14 767.32 339.13 769.12 343.13 770.8 347.12 769.7 351.12 768.78 355.11 767.35 359.1 767.87 363.1 769.74 367.09 768.67 371.09 768.15 375.08 770.8 379.08 769.89 383.07 769.56 387.07 770.09 391.06 768.89 395.06 769.66 399.05 768.07 403.04 770.22 407.04 767.98 411.03 770.16 415.02 770.74 419.02 767.32 423.01 768.47 427 767.69 431 769.81 434.99 767.9 438.98 770.98 442.98 767.96 446.97 769.56 450.96 768.2 454.96 767.25 458.95 769.31 462.95 768.32 466.94 767.73 470.94 768.32 474.94 769.35 478.93 770.82 482.93 767.64 486.92 767.87 490.91 767.35 494.91 767.91 498.9 769.23 502.9 768.5 506.89 768.84 510.88 770.39 514.88 770.15 518.87 768.85 522.86 768.65 526.86 770 530.85 769.48 534.85 767.6 538.84 770.89 542.84 770.19 546.83 767.14 550.83 769.89 554.82 770.23 558.82 767.86 562.81 769.13 566.81 768.42 570.8 768.77 574.8 768.64 578.79 767.67 582.78 768.77 586.78 768.99 590.77 768.83 594.77 767.99 598.76 767.07 602.75 769.03 606.75 770.69 610.74 770.79 614.74 769.71 618.73 768.85 622.73 768.09 626.73 770.04 630.72 767.08 634.72 769.4 638.71 769.29 642.71 767.3 646.7 767.18 650.7 769.44 654.69 769.85 658.68 770.01 662.67 768.99 666.66 770.19 670.65 770.36 674.64 767.1 678.63 769.36 682.62 768.27 686.61 768.1 690.6 769.38 694.58 767.51 698.57 767.26 702.56 769.28 706.55 767.93 710.54 768.88 714.54 768.38 718.53 770.88 722.52 769.99 726.51 768.1 730.51 770.41 734.5 770.9 738.5 769.7 742.49 769.26 746.49 767.55 750.48 767.95 754.48 769.02 758.47 767.04 762.47 767.31 766.46 768.97 770.45 770.27 774.44 770.75 778.43 768.96 782.42 770.07 786.42 767.59 790.41 767.13 794.4 768.9 798.39 769.19 802.38 770.77 806.37 767.69 810.37 769.31 814.36 767.72 818.35 768.79 822.35 768.7 826.34 768.37 830.34 767.64 834.34 770.38 838.33 769.35 842.33 768.59 846.32 769.35 850.32 769.2 854.31 768.31 858.3 769.51 862.3 768.81 866.29 770.63 870.28 768.31 874.28 769.16 878.27 767.08 882.26 767.98 886.25 768.78 890.25 768.69 894.24 767.02 898.24 769.17 902.24 768.3 906.23 768.48 910.23 769.98 914.23 769.39 918.22 768.86 922.22 770.24 926.21 767.49 930.21 767.12 934.2 767.61 938.19 769.25 942.19 768.75 946.18 770.85 950.18 768.3 954.17 767.4 958.17 770.75 962.16 769.85 966.16 769.88 970.16 767.1 974.16 768.01 978.15 768.47 982.15 768.49 986.14 768.73 990.14 768.67 994.13 769.23 998.13 770.5 1002.12 767.75 1006.12 769.99 1010.12 768.11 1014.12 768.54 1018.11 770.03 1022.11 767.91 1026.11 767.48 1030.1 770.45 1034.1 769.69 1038.09 769.79 1042.09 769.94 1046.09 768.91 1050.08 767.78 1054.08 768.95 1058.08 770.48 1062.08 769.7 1066.07 768.35 1070.07 770.12 1074.06 770.44 1078.06 770.51 1082.06 770.03 1086.06 768.51 1090.06 770.48 1094.05 768.02 1098.05 769.77 1102.05 767.49 1106.04 770.02 1110.04 769.31 1114.04 768.84 1118.04 769.61 1122.04 770.51 1126.03 769.35 1130.03 769.76 1134.03 770.01 1138.03 769.98 1142.03 770.46 1146.02 770.22 1150.02 770.99 1154.02 770.08 1158.02 769.68 1162.02 770.62 1166.01 770.58 1170.01 767.14 1174.01 769.88 1178.01 769.5 1182.01 768.12 1186 768.54 1190 768.42 1193.99 767.24 1197.98 767.61 1201.98 769.82 1205.98 767.39 1209.98 768.33 1213.97 769.71 1217.97 769.85 1221.96 767.19 1225.96 770.81 1229.96 769.32 1233.96 767.44 1237.96 767.3 1241.95 769.01 1245.95 769.63 1249.95 768.88 1253.95 768.26 1257.95 770.03 1261.95 769.4 1265.95 769.53 1269.95 770.54 1273.95 770.49 1277.95 770.46 1281.95 767.2 1285.95 768.37 1289.95 769.69 1293.95 770.29 1297.95 770.28 1301.95 770.25 1305.95 769.74 1309.95 770.45 1313.95 770.4 1317.95 768.1 1321.95 770.92 1325.95 769.91 1329.95 770.62 1333.96 770.89 1337.96 768.72 1341.96 769.99 1345.97 770.87 1349.97 768.7 1353.97 768.85 1357.98 767.88 1361.99 769.72 1367.34 770.33 1367.65 765.01 1366.41 761.09 1364.81 757.17 1365.13 753.22 1364.27 749.29 1363.69 745.35 1366.42 741.34 1364.92 737.42 1366.61 733.43 1363.5 729.55 1366.41 725.53 1366.63 721.58 1365.47 717.65 1363.45 713.75 1363.63 709.79 1363.87 705.83 1364.62 701.86 1363.56 697.93 1365.73 693.93 1366.07 689.97 1363.84 686.07 1365.5 682.07 1364.68 678.14 1363.59 674.21 1362.67 670.28 1362.45 666.33 1364.31 662.33 1362.11 658.43 1365.14 654.41 1364.62 650.47 1363.29 646.54 1362.35 642.61 1363.87 638.62 1363.09 634.69 1363.02 630.73 1362.87 626.78 1364.01 622.79 1360.99 618.91 1363.65 614.89 1361.86 610.97 1361.28 606.98 1362.48 602.95"/><polygon class="cls-7" points="1364.3 610.86 1363.34 607.73 1360 605.69 1356.35 604.22 1353.06 602.1 1348.86 601.46 1346.77 597.44 1341.67 598.01 1339.54 594.17 1337.22 590.7 1333.13 589.63 1330.61 586.49 1327.69 583.88 1322.58 583.83 1322.28 578.21 1318.86 576.16 1314.63 574.94 1312.13 571.86 1309.1 569.31 1308.5 564.45 1305.41 562 1301.62 560.14 1300.82 555.65 1295.19 555.26 1292.46 552.38 1290.13 549.17 1289.14 545 1287.75 541.15 1285.65 537.79 1283.45 534.43 1279.77 532.44 1277.64 528.75 1272.98 528.4 1268.97 527.58 1265.25 526.48 1261.87 522.87 1257.78 521.83 1253.55 524.59 1249.53 523.64 1245.69 522.31 1241.85 521.37 1238 525.4 1234.14 523.13 1230.24 521.58 1226.45 523.67 1222.75 526.27 1218.96 526.53 1215.2 527 1211.37 526.88 1207.34 525.77 1203.67 527.07 1199.52 526.16 1196.53 530.55 1191.58 527.99 1187.48 528.61 1184.02 530.99 1180.39 532.83 1176.65 534.37 1173.3 536.74 1170.42 540 1166.15 540.44 1163.37 543.76 1158.38 543.04 1154.82 544.97 1153.38 550.45 1148.03 549.35 1146.49 554.53 1142.86 556.3 1139.55 558.57 1135.74 560.07 1131.04 560.2 1128.23 563.28 1125.94 567.16 1121.73 568.06 1116.89 567.97 1115.1 572.64 1111.26 574.11 1106.9 574.7 1105.08 579.45 1100.45 579.55 1098.41 584.07 1093.04 582.72 1091.41 588.16 1087.76 589.96 1083.83 591.16 1080.41 593.44 1075.99 593.44 1071.37 592.67 1068.15 595.44 1064.44 596.95 1060.34 597.13 1056.43 597.84 1052.73 599.43 1049.14 602.36 1044.89 600.76 1040.96 601.76 1036.94 602.92 1033.02 600.25 1028.88 601.99 1024.92 601.18 1024.08 601.98 1022.72 596.84 1017.84 596.82 1014.3 594.83 1012.13 590.95 1007.12 590.99 1005.88 585.87 1002.79 583.31 997.39 583.75 993.91 581.62 992.72 576.62 988.98 574.86 986.39 571.67 983.07 569.37 979.38 567.46 977.17 563.91 975.52 559.83 970.26 559.44 969.23 554.87 964.21 554.43 964.44 548.78 958.91 549.25 957.53 545.03 954.88 542.2 951.99 539.62 946.97 540.44 944.16 537.59 941.54 534.12 937.45 533.59 934.24 531.05 930.7 529.15 927.14 527.02 922.22 529.23 918.05 528.98 914.26 524.81 909.87 525.73 905.6 526.15 901.54 529.31 897.27 528.31 893.05 528.62 889.11 527.85 885.42 525.85 881.87 524.64 877.83 525.24 873.49 525.56 871.14 521.57 868.52 518.61 864.75 517.37 860.47 516.67 858.9 512.16 854.32 511.92 852.34 507.7 847.74 507.8 844.71 505.13 839.93 506.47 837.5 501.88 833.81 500.36 829.67 500.65 825.43 501.69 821.69 499.78 817.72 498.6 813.6 498.05 809.69 499.75 805.36 498.5 802.39 503.8 797.6 500.81 794.09 503.32 790.68 506.3 786.53 506.17 782.28 505.36 778.09 504.56 774.84 509.36 770.4 506.7 766.48 507.36 762.62 508.78 758.72 510.03 754.83 511.74 750.71 510.43 746.8 512.33 742.65 509.55 738.29 509.11 733.96 508.42 729.6 512.96 725.24 511.37 721.12 508.19 716.72 509.87 712.64 508.31 708.62 509.97 704.11 508.89 700.9 511.89 697.35 513.74 692.81 513.79 689.72 516.53 687.35 520.33 684.19 522.77 679.22 522.55 675.73 524.57 673.79 528.77 669.98 530.34 667.6 533.85 664.75 536.72 660.53 537.75 659.01 542.35 654.21 542.66 650.4 544.28 649.71 549.9 645.75 551.31 642.06 553.09 638.93 555.59 634.82 556.85 632.03 559.77 629.83 563.42 627.5 566.93 621.77 566.18 620.38 570.86 616.76 572.76 612.25 573.52 612.05 579.72 608.96 582.27 605.08 583.83 600.51 584.47 597.07 586.54 593.52 588.49 591.11 591.93 587.83 594.2 584.2 596 581.55 599.15 578.57 601.84 575.41 604.28 571.07 604.84 568.08 607.49 565.25 610.7 561.19 611.35 557.8 613.9 553.85 615 549.68 614.19 545.69 614.68 541.15 616.33 537.76 611.84 533.44 611.68 528.76 611.8 526.13 607.51 522.84 604.3 517.64 606.3 513.66 605.45 509.85 602.75 505.71 605.28 501.62 602.28 497.34 601.99 494.05 605.66 489.91 605.96 487.11 609.88 483.24 611.2 479.13 611.95 474.48 609.96 471 613.86 466.71 610.44 462.6 613.45 458.52 612.54 455.31 608.89 451.73 607.36 447.51 607.18 443.5 606.17 440.19 603.81 436.8 601.62 433.04 600.04 428.85 599.18 426.87 594.59 422.05 594.92 418.06 593.94 414.59 592 412.35 587.24 407.34 588.81 403.99 586.4 400.23 585.04 397.27 581.02 393.29 580.34 389.24 580.07 384.95 581.27 381.38 578.61 377.12 580.6 373.54 576.46 369.29 580.6 365.46 576.78 361.47 578.5 357.53 578.81 353.35 576.08 349.64 579.31 346 581.88 342.11 582.24 338.16 582.43 334.41 583.66 330.25 583.09 326.37 583.88 322.64 585.24 317.89 583.05 314.2 584.69 311.39 588.99 307.27 589.14 303.67 590.85 299.56 591.17 296.46 594.26 291.64 592.57 289.26 597.44 284.57 596.08 281.54 599.22 276.75 597.61 274.64 603.21 270.37 602.99 266.25 603.19 262.55 604.49 258.37 604.54 255.23 607.37 251.47 608.52 248.62 612.12 244.09 611.2 241.28 614.92 237.57 616.21 234.13 618.24 229.86 618.02 227.57 618.61 229.7 622.32 224.04 622.86 220.96 619.65 217 617.95 212.77 617.91 209 620.48 204.66 619.94 200.95 621.79 197.76 624.52 195.19 628.02 189.83 627.17 186.25 629.16 183 631.59 180.98 635.46 178.38 638.58 174.05 639.72 173.68 645.34 169.1 646.22 165.1 647.68 163.35 651.83 160.84 655.2 156.24 655.68 152.32 657.04 149.51 660.28 146.8 664.12 141.28 661.7 138.74 666.47 134.33 666.15 130.68 668.4 126.81 670.23 122.33 668.22 118.25 667.97 114.36 671.42 110.2 671.5 106.21 667.77 102.21 667.4 97.87 669.9 93.71 669.84 89.66 669.04 85.44 668.97 81.35 668.2 78.33 663.65 74.07 664.04 69.82 664.14 66.03 662.8 63.66 657.73 58.21 660.72 55.35 657.1 52.75 653.06 48 654 44.1 652.93 41.82 648.36 37.74 647.7 32.59 649.2 29.43 646.58 26.14 644.2 23.94 639.62 18.77 641.13 14.81 640.15 12.38 636.01 8.29 635.32 5.61 631.63 1.58 631.57 0.62 635.48 -0.07 639.5 1.33 643.55 -1.37 647.53 1.1 651.6 0.42 655.62 2.81 659.69 -1.63 663.65 3 667.75 -1.03 671.72 -0.32 675.76 1.99 679.83 0.57 683.83 1.73 687.89 -0.16 691.88 2.58 695.96 2.43 699.99 0.84 704 0.28 708.02 2.16 712.08 1.46 716.1 -2.08 720.07 0.35 724.14 -2.06 728.13 -2.89 732.15 -1.62 736.2 1.36 740.29 1.58 744.32 0.81 748.35 1.61 752.39 -0.69 756.39 -2.08 760.4 -2.12 764.44 -0.37 767.89 2.99 766.88 6.99 770.29 10.98 770.57 14.97 766.35 18.97 770.03 22.96 770.74 26.95 768.6 30.95 770.16 34.94 770.33 38.93 766.03 42.92 769 46.91 766.86 50.91 768.67 54.9 767.77 58.89 767.8 62.88 769.36 66.88 767.38 70.87 769.51 74.86 770.91 78.85 766.52 82.84 770.15 86.84 766.74 90.83 769.6 94.82 766.91 98.82 769.71 102.81 767.54 106.81 766.51 110.8 770.34 114.79 770.77 118.79 767.49 122.78 768.96 126.78 769.59 130.77 769.17 134.77 770.01 138.76 768.85 142.76 767.12 146.75 769.73 150.75 770.64 154.74 770.68 158.74 769.07 162.73 768.67 166.72 766.39 170.72 767.09 174.71 766.5 178.71 768.36 182.7 768.8 186.69 768.57 190.68 766.09 194.68 769.86 198.67 766.66 202.66 766.51 206.66 770.3 210.65 766.34 214.64 767.21 218.63 766.41 222.63 769.08 226.62 767.73 230.62 766.63 234.61 770.43 238.6 768.33 242.6 769.67 246.59 768.7 250.59 770.87 254.58 767.07 258.58 767.09 262.57 767.54 266.57 769.07 270.56 768.49 274.56 770.59 278.55 768.05 282.55 766.18 286.54 767.02 290.54 770.87 294.53 770.19 298.53 770.19 302.52 766.32 306.51 769.36 310.51 770.7 314.5 770.83 318.49 770.56 322.49 770.39 326.48 768.28 330.47 766.67 334.47 768.83 338.46 767.93 342.45 770.89 346.45 766.02 350.44 770 354.44 767.4 358.43 766.25 362.43 770.94 366.42 767.83 370.42 770.42 374.41 769.12 378.41 766.04 382.41 768.82 386.4 768.07 390.4 766.45 394.39 766.29 398.39 767.49 402.38 770.57 406.38 769.02 410.37 770.53 414.36 766.5 418.36 768.85 422.35 770.65 426.35 770.03 430.34 766.44 434.33 766 438.33 768.55 442.32 768.58 446.32 767.69 450.31 769.12 454.31 770.97 458.3 768.59 462.3 769.08 466.29 769.36 470.29 770.63 474.28 769.73 478.28 770.81 482.28 770.85 486.27 770.19 490.27 769.43 494.26 766.38 498.26 766.34 502.25 768.13 506.25 766.87 510.24 770.98 514.23 770.03 518.23 766.41 522.22 769.83 526.22 766.01 530.21 770.62 534.21 768.21 538.2 770.92 542.2 767.34 546.19 770 550.19 767.08 554.18 767.61 558.18 766.85 562.18 770.59 566.17 766.02 570.17 767.55 574.16 769.8 578.16 766.71 582.15 767.45 586.15 768.68 590.14 767.86 594.14 768.05 598.13 767.88 602.13 770.59 606.12 770.04 610.12 770.74 614.11 768.29 618.11 766.46 622.1 766.4 626.1 768.72 630.1 768.7 634.09 767.41 638.09 767 642.08 766.33 646.08 768.17 650.07 768.19 654.07 770.78 658.06 769.62 662.05 768.84 666.04 766.24 670.03 766.73 674.02 767.2 678.01 769.91 682 768.12 685.99 767.34 689.98 768.39 693.97 770.38 697.96 770.19 701.95 766.51 705.94 769.25 709.93 766.52 713.92 767.58 717.92 766.82 721.91 769.4 725.9 767.68 729.9 768.33 733.89 768.52 737.89 770.14 741.89 766.53 745.88 766.87 749.88 770.1 753.88 766.81 757.87 767.38 761.86 768.49 765.86 767.71 769.85 770.82 773.84 768.6 777.83 769.13 781.83 768.36 785.82 769.46 789.81 767.77 793.8 767.09 797.79 769.17 801.79 768.77 805.78 770.63 809.77 770.99 813.77 767.58 817.76 767.63 821.75 767.48 825.75 770.66 829.75 769.81 833.75 768.32 837.74 768.1 841.74 770.11 845.74 767.44 849.73 766.74 853.73 768.65 857.72 769.42 861.71 769.45 865.71 767.64 869.7 766.94 873.69 769.66 877.69 769.56 881.68 767.82 885.67 769.33 889.67 767.63 893.66 766.24 897.66 767.8 901.66 770.64 905.65 769.6 909.65 770.16 913.65 769.95 917.65 770.41 921.64 770.79 925.64 766.53 929.63 768.52 933.63 766.83 937.62 769.84 941.62 767.06 945.61 769.53 949.61 766.78 953.6 769.84 957.6 769.02 961.6 770.97 965.6 768.17 969.59 770.36 973.59 766.06 977.59 766.41 981.58 768.02 985.58 767.07 989.57 768.36 993.57 767.27 997.56 767.66 1001.56 768.1 1005.56 766.72 1009.56 766.95 1013.55 768.3 1017.55 769.06 1021.55 768.11 1025.55 767.06 1029.54 768.33 1033.54 770.76 1037.54 767.46 1041.53 768.92 1045.53 770.78 1049.53 766.41 1053.53 768.03 1057.53 770.73 1061.52 767.2 1065.52 767.53 1069.52 770.14 1073.51 768.25 1077.51 766.33 1081.51 770.33 1085.51 770.81 1089.51 769.71 1093.51 768.82 1097.5 766.61 1101.5 768.87 1105.5 767.69 1109.5 766.62 1113.5 766.16 1117.5 768.14 1121.49 768.54 1125.49 767.95 1129.49 769.63 1133.49 768.33 1137.49 767.36 1141.49 766.64 1145.48 768.75 1149.48 766.14 1153.48 768.84 1157.48 766.8 1161.48 768.02 1165.48 766.35 1169.48 767.14 1173.48 766.51 1177.48 769.7 1181.47 770.21 1185.47 770.11 1189.46 766.54 1193.46 766.14 1197.45 771 1201.45 770.93 1205.45 767.75 1209.45 766.45 1213.45 769.19 1217.44 767.52 1221.44 768.24 1225.44 766.35 1229.44 766.89 1233.44 767.84 1237.43 768.85 1241.43 768.32 1245.43 769 1249.43 766.42 1253.43 768.12 1257.43 770.95 1261.43 766 1265.43 770.16 1269.43 770.27 1273.43 769.38 1277.43 770.53 1281.43 768.86 1285.43 767.29 1289.44 771 1293.44 767.78 1297.44 768.34 1301.44 768.81 1305.44 768.14 1309.44 766.96 1313.44 766.9 1317.44 770.72 1321.44 766.96 1325.45 768.67 1329.45 767.7 1333.45 766.29 1337.45 769.24 1341.46 770.53 1345.46 767.86 1349.47 770.7 1353.47 766.32 1357.48 770.99 1361.49 767.09 1364.95 767.94 1363.93 764.54 1365.57 760.6 1363.42 756.63 1366.7 752.7 1365.08 748.74 1363.33 744.78 1366.63 740.85 1365.92 736.89 1367.55 732.95 1366.03 728.99 1365.56 725.03 1364.4 721.07 1365.81 717.13 1364.86 713.17 1366.6 709.22 1364.84 705.26 1368.34 701.33 1366.95 697.36 1364.21 693.39 1364.17 689.44 1367.99 685.5 1364.54 681.53 1364.15 677.57 1368.33 673.64 1364.05 669.66 1366.12 665.72 1367.27 661.77 1364.22 657.8 1365.13 653.85 1364.57 649.89 1366.37 645.95 1367.58 642 1364.75 638.02 1364.4 634.07 1367.06 630.12 1367.77 626.17 1368.64 622.22 1368.09 618.26 1365.29 614.6 1364.3 610.86"/><path class="cls-8" d="M1365.3,655.84c-.51-1-4,.49-4.37-.52s4.09-3.72,3.28-4.42-2,.26-3,0-1,.05-1.9-.45,1-2.21.24-2.91-.91-1.6-1.78-2.13-2.45,1.72-3.42,1.38-1.5,1.61-2.5,1.39-.56-4.63-1.66-4.73-.78,2.66-1.68,2-.27-.47-.83-1.53-3.21.71-3.93-.25,1.27-2.33.5-3,.29-3.31-.66-3.73-2,.07-3,0-1.36,4.09-2.44,4.06-1-1.5-2.16-1.45-1.69,1.22-2.69.72c-.79-.39-1-1.17-1.39-2s-.21-.88-.59-1.67,1.52-3.33.69-3.63c-1.13-.4-1.73,1.92-2.91,2.16a9.89,9.89,0,0,1-2.36.34c-1,0-1.2,1.32-2.21,1.18s-.93-1.17-1.79-1.71c-1-.64-2.74.61-3.47-.34s.57-1.16-.45-1.78-.07-1.35-1.09-1.45-1-.63-2-.81-1.32,1.17-2.29.92-.52-2.29-1.5-2.45-1.1.16-2.12.11-1.55,2.17-2.52,1.87a8.23,8.23,0,0,1-2.16-1.21c-.89-.54.44-4.22-.59-4.41s-1.41,2.25-2.47,2.42-1.09,2.5-2.16,2.48-1.1-1.69-2.07-1.89-1.52.62-2.42.2,1.13-3.89.22-4.57-1.59-.32-2.61-.78-2.12,4.15-3.11,4-.44-1-1.45-1-.48,1.06-1.51,1.23-1.84-.7-2.88-.84-2,.29-2.92-.15.74-4.92-.29-5.18-1.38,1.43-2.39,1.38-.8-2.93-1.8-3-1.17,2.35-2.18,2.26-.23,3.27-1.21,3.52c-.82.22-.46-1.36-1.14-.84s-.63.58-1.31,1.1-1.5.09-2.35.23c-1,.17-.56-3-1.55-3.29s-.85-1.21-1.85-1.42-1.55,2.31-2.55,2.12-1-.62-2-.74-1.18,2.68-2.19,2.64-.94-1.8-1.94-1.75-1.41-2.62-2.4-2.48.63,6-.3,6.32-3.75-5-4.69-4.44.84,5.17-.27,5.22a6,6,0,0,1-3.12-.77c-1.07-.52-.14-2-1.31-2.09-1-.12-.93-.75-1.91-.48s0,2.9-1,3.24-1.34-.93-2.28-.52-1.69-3.45-2.71-3.34-1.19,5.26-2.25,5.05-.39-1.05-1.46-.94.16,1.48-.77,1.89-2.77-4.74-3.76-4.49-.53,1.07-1.54,1.16-1.81-.7-2.73-.28-1.3,1.13-2.13,1.89,1.07,3,.15,3.65-2.88-3.28-3.78-2.84.48,1.5-.52,1.59c-.84.07-1.21,3.69-2,3.4s-.65-.71-1.45-1,.14.54-.7.69c-1,.17.34.47-.52,1s-1.43,1.53-2.42,1.83-2-2.24-3.08-2.24-.62-.35-1.55.18,1.15,1.56.48,2.55-3.19-.92-4.18-.24-.84-.85-1.87-.7-1.18-1-2.21-.89-.69,2.63-1.73,2.77-1.69-.85-2.59-.31,2,3.42,1.29,4.29-3.11-1.77-4.11-1.3-.54,3.41-1.67,3.37-.62-1.24-1.67-.81-2.54-1.64-3.26-.84-.18.1-1.15.55,0,5.33-1,5.36-.58-.78-1.62-.51-1.67-2.36-2.54-1.91-.22,1.81-1.12,2.22-.69,1.07-1.6,1.43-1.54-1.33-2.35-.79-2.83-1.43-3.62-.67,1.3,3,.46,3.68-1.32,0-2.2.69-1.62-1.46-2.61-1,.41,4.28-.59,4.45-1.17-3.21-2.18-3.23-.52-.89-1.57-1.1-1.34,1.56-2.38,1.29-1.73,2.08-2.76,1.74-.42-3.77-1.5-3.85-.84,3.59-1.81,3.77-1.13-.24-2.11-.14-1,1.95-2,2-1.83-6.49-2.78-6.27,1.07,6.61.08,7.07-2.32-.05-3.41-.14.26-4-.7-4.65-1.18-2.49-2.29-2.73-1.21,5.93-2.21,6.12-1.33-1.83-2.32-1.57a20.72,20.72,0,0,0-2,.6c-1,.35-1.21-.69-2.29-.6s-1.22,2.23-2.19,2-.62-1.84-1.53-2.23-2.38,1.57-3.3.94.94-6.38-.18-6.49-1.8,2.62-2.83,3.06-.29,2.85-1.39,3.06-1.13-2.85-2.11-2.89-.92.12-1.9,0-.7-1.57-1.67-1.71-.36.3-1.28-.06-3.47,4.37-4.4,3.76,1-5.94-.16-6-.87,4-1.9,4.47-1,1.42-2.1,1.64-1.35-4.32-2.33-4.33-1.62,5.35-2.59,5.13.49-4.86-.46-5.3-1.09-1.35-2.1-1.6-1.64,3.2-2.63,3.16-1.28.89-2.25.68-1.51.43-2.46.06-.09-2.38-1.1-2.5-1.23-2.73-2.23-2.6-.77,2.16-1.76,2.37-1.23-.37-2.25-.07-.46.36-1.5.16c-.84-.17-2.06,1.88-2.66,1.26s.31-1.5-.29-2.12,0-2.23-.88-2.27a4.71,4.71,0,0,0-2.88.39c-1,.54.4,4.09-.72,4.44-.95.3-1.8-3.93-2.8-3.84s-.76,1.61-1.76,1.58-1.22,1.87-2.2,1.7-.81-1.18-1.77-1.41-1.29.71-2.25.41-1.43.86-2.37.52.22-3.58-.73-4a16,16,0,0,0-2-.62c-1-.27-.77-1.84-1.74-2s-1.19.65-2.17.53-1-.89-2-1-1.11,2-2.08,1.81a16.05,16.05,0,0,1-1.92-.42c-1-.25-.66-2.87-1.65-3s-1.33,4.33-2.32,4.33-1.13-2.9-2.11-2.81-.9,1.38-1.91,1.57-.66-1.53-1.68-1.69-2.83,4.68-3.74,4.2.79-3.86-.23-3.92-.41,2.22-1.49,2.59-2.09-3.59-3.21-3.39-.59,2.73-1.58,2.73-1-.71-1.95-.82-1.19,1-2.14.78.47-3.2-.38-3.68c-1.06-.59-1.77,1-2.67.21s-.63-2.44-1.8-2.76-1.6,1.42-2.62,1.72-1,3.2-2.08,3.1a7,7,0,0,1-2.73-1c-1-.48.13-2.55-1-2.45s-.24,1.38-1.23,2-2.4-2.27-3.52-1.85c-.91.35-.25,1.84-1.22,1.92s-.71-.42-1.66-.67c-1.16-.3-1.06,0-2.1-.59s-1.12-1.2-2.32-1.21a3.78,3.78,0,0,0-2.56.51c-.93.59-.45-.24-1.54-.07s.2-1.25-.84-1.53-1.86,3.74-2.94,3.78.07,2.16-.88,2.51-1.46-1.26-2.38-.85-.85.4-1.75.87-1.94-3-2.94-2.84-.5,1.91-1.56,1.8-2.16-3.17-3.17-2.86.94,4.84.11,5.53-2.27-1.33-3.18-.75a8.41,8.41,0,0,1-1.62.72c-.9.41-.32,1.33-1.29,1.5s-1.06,1.82-2.15,1.75a4.18,4.18,0,0,0-1.82.18c-1,.18-1.2-1.16-2.1-.72s-1.93-.76-2.67-.09-.53,1.42-1.16,2.37,1.65,2.88.86,3.7-.42,1.83-1.24,2.38-3-4.18-3.94-4c-1.15.27-.47.34-1.65.27s-2.23-1.71-3.38-1.41c-1,.25,1,5.17.18,5.76s-2-1.09-2.85-.52-1.53-.57-2.37,0-.49.8-1.37,1.27-.31,1.53-1.25,1.92-1.87-1.08-2.74-.54-.24,1.7-1,2.35-2-.34-2.7.42,3.27,3.72,2.69,4.62-3.21-1.51-4.14-1-.18,3.87-1.34,4-2.73-5.44-3.78-4.94a8.65,8.65,0,0,0-2.56,2.07c-.67.76,1.64,2.71.87,3.37s.48,2.49-.36,3-3.49-2.49-4.12-1.72,0,1.81-.48,2.87.77,1.5-.22,2.11-.92-.49-2.14-.54a4.13,4.13,0,0,0-2.58.61c-1,.46,2.12,2.81,1.53,3.71s-4.59-2.23-5.36-1.47.32,1.45-.52,2,.11,2.47-.81,2.85-1.94-2.82-2.94-2.57-.23,3-1.2,3.32-.34,1.41-1.23,1.81-1.73-1.51-2.52-.93-1.78-.27-2.51.51.71,2.6-.27,3-1.32-2.67-2.39-2.68-1.59-.74-2.64-.53-.41,2.92-1.31,3.3-1.59-1.39-2.5-1-.55,1.18-1.47,1.51-.9.52-1.8.88.35,3.26-.56,3.68-2.49-4.6-3.46-4.39-.3,3.11-1.3,3.12-.93-.82-1.92-.9-1,.33-2,.17-.35,2.1-1.31,2.42,1,.37.38,1.06-5-3.08-5.61-2.38,1.93,4,1,4c-1.16.12-.66-2.31-1.7-2.83a6,6,0,0,0-2.45-.67c-1-.16-1.58-1.9-2.56-1.71s-1.1-.29-2.07-.09-.87.84-1.84,1.05.07,4.88-.9,5.1-1.79-3.24-2.75-3-.54,1.15-1.53,1c-.83-.1-1.35,1.18-2.06.74s-1,0-1.71-.42.09-3.3-.73-3.14c-1.15.23,0,2.53-.9,3.28s-.57,1.71-1.59,2.3c-.85.49-2.15-2.21-3.09-1.91s-.75.09-1.73.18-.91,1.15-1.94,1-1,1.88-2,1.89-1-1.56-1.95-1.41-1.43-1.16-2.33-.72.37,2.32-.44,3.05-2.16-1.38-3.16-.93-.14,4.59-1.19,4.69a6.65,6.65,0,0,0-1.67.22c-1,.24-2.24-4.14-3.2-3.77s-.38,1.78-1.24,2.33-1.33.08-2.1.81-.35.8-1.34,1.16a3.56,3.56,0,0,1-2.09.26c-1.18,0-1.65-.71-2.69-.15-.77.41,2.29,2.24,2,3.06s.46,1.1.16,1.92-3-.23-3.82.16c-1.1.55-.89-2.8-2.12-2.86a7.55,7.55,0,0,0-4,.85c-1,.66,1.39,3.51.89,4.65s-2.44-1.08-3.41-.31.49.1-.62.23-.85,2.31-1.83,2.82-3.06-1.33-3.77-.53,2.08,3.94,1.06,4.29-1.45-.78-2.66-.93-1.9-2.37-3-1.92c-.79.31-1.09,1.71-1.45,2.48s2.64,2.2,2.28,3-2.07-.18-2.73.37,0,2.55-1,2.89-1.18-.55-2.11-.14.18,2.28-.72,2.77-1.71,0-2.69.32-1.88-4.47-2.93-4.38-1.09.67-2.14.81-.28,4.55-1.28,4.74-2.19-4-3.1-3.52-1.81.09-2.65.8-.41.11-1.4.59-.25-.15-1.25,0-.34,2.44-1.35,2.35c-1.18-.1-1.41,1.23-2.53.86s-.52.56-1.68.78-2.08-2.31-2.94-1.56,1.5,4,.55,4.67-2.65-2.26-3.6-1.8-.61,1.28-1.64,1.52-1.06,1.43-2.08,1.43S761,732.1,760,732s-1,.92-2,.74-1.59,2.68-2.62,2.45,0-4.44-1-4.72-2.15,5.58-3.21,5.47-.81-4.21-1.81-4.14-.87,2.81-1.87,2.82-.87-4.14-1.87-4.18-1.29,1.83-2.28,2a8.37,8.37,0,0,0-2.25.63c-1,.39-.62-1.12-1.69-1.09s-.89,2.6-1.88,2.27-.66.89-1.69,1.06c-1.23.21.54,1.9-.52,2.57s-2.37-.15-3.59.12c-1,.23-1.67-.57-2.67-.78s-.9-.81-1.9-1.05-1.11.13-2.1-.13,0-3.22-1-3.56-2.1,2.56-3,2.15-.24-2.47-1.25-2.71a10.14,10.14,0,0,0-2.34,0c-1.09-.06-2.17-.53-2.47.53s3.22-1.14,4.09-.27-3.19,2.27-3.33,3.49c-.12,1,1.73-1,.74-.84s-.55,1-1.53.8-1.54.92-2.53.32-.72-.7-1.84-1-.72,1.35-1.77,1.42-1.24-3.33-2.3-3.29-1-.37-2-.37-1.16,3.85-2.2,3.79-1.11-.64-2.16-.77-1-2.75-2-2.57-.89,1.27-1.91,1.76-1.36-1.63-2.47-1.43-.33-.18-1.38-.29-1.45,3.44-2.49,3.29-1.4,1.17-2.5,1-.48-1-1.59-.94-2.08-4.08-3.08-3.72.06,3.19-.89,3.67.35,2.44-.55,3-3-3-3.95-2.51a8.88,8.88,0,0,1-1.7.82c-1,.34-.6,1.41-1.61,1.66s-1.18-1.14-2.18-1-2.42-1.38-3.3-.88,1.2,3.81.56,4.56-4-1.3-4.45-.45,3.78,3.23,3.38,4.25-3.42-1.47-4.22-.71,1,1.86,0,2.13-.77.88-1.65,1.38-2.36-1.13-3-.46-.09.53-.91,1,.23,2.47-.76,2.8.32,2.52-.59,3-1-.55-1.76.11-2.82-1.61-3.52-.9a20.17,20.17,0,0,0-1.34,1.71c-.67.79.33,1.73-.63,2.14s-1.1-1.22-2.26-1.24-1.16,1-2.14,1.6-.83.73-1.35,1.84-1.73-.38-2.63.45,0-.08-.93.2a11.69,11.69,0,0,0-2.37.56c-1.17.56-.33,2.56-1.27,3.45-.58.55-1.82,0-2.21.65s.32,1.59.64,2.32-.07,2.77.78,3.13,1.81-1.77,2.72-1.6,1-1.34,2-1.36.2-1.43,1.15-1.72c1.11-.33.35-.32,1.34-.9s2.92,3.54,4,3.23.47-.16,1.46-.15,1.13-3.26,2.12-3.2,1.21-1,2.21-.89-.15,5.69.81,6,2-2.85,3-2.39,1.09,0,2.14.29.42,2.87,1.42,3,1.77,1.09,2.76.89,1.13-1.84,2.12-2.41-.06-2.81,1-3.21,1.92,3.94,2.91,3.76-.06-1.23.93-1,1.71-2.15,2.7-1.55.54,2,1.68,2.19,1.53,1,2.53.84.35-4.35,1.36-4.46,1.19-.8,2.19-.81,1.33.87,2.32,1,.93,1.49,1.93,1.82.63,3.69,1.68,3.73,1.29-1.84,2.29-2.09.41-2.75,1.42-3,1.31,1.21,2.31,1,1.37-3.08,2.38-3,.23,4.27,1.23,4.69.55,2.42,1.59,2.72,2.09-4.52,3.09-4.37.87,4.53,1.87,4.47.78-2.93,1.78-3.2.92-1.78,2-1.86.78,4.52,1.78,4.63,1.18-3.29,2.17-3.46,1.52,1.22,2.52.75.22-2.82,1.28-3.09,1.26-1.15,2.25-1.18.52,4.24,1.48,4.52c1.12.32,2.78-3.42,3.78-2.81s-.69,5.07.46,5.26,1.79-.83,2.79-1.11-.6-4.52.35-4.93,2,2,3,1.37,1-2.29,2.12-2.33,2.52-.88,3.52-.36-.09,2.21,1,2.58.45,2,1.45,2.2.74,2.64,1.75,2.76,1.45-5,2.45-4.92,1.81,5.12,2.76,4.8a9.64,9.64,0,0,0,2.82-1.71c1-.72-.94-7.11.29-7.11s-.78,6.51.22,7.23a7.56,7.56,0,0,0,3.73,1.5c1.2,0,.34-4.26,1.33-4.94s1.24-3,2.44-3.11.73,4.4,1.73,4.89A7.37,7.37,0,0,0,758,770c1,.18,1.21-.89,2.21-1s1.52,1.53,2.48,1.24-.84-4.84.16-5.34,2.19.86,3.3.83.84,1.69,1.84,2.14,1,1.3,2.1,1.39,1-1.31,2-1.6.9-.9,1.93-1.07a11,11,0,0,1,2.07-.08c1,0,1,1.83,2,1.88s1.08-1.3,2.08-1.16,1.08-1.43,2.09-1.37,1,5,2,5,.14-.88,1.1-.59c1.13.33,3.16-4.31,4.16-3.69s-.51,4.88.66,4.86.75-2.45,1.75-3.09,1.12,1,2.3.94-.42,1.09.58,1.66,2.43-2.14,3.51-1.76,1.22-2.1,2.22-1.95.75,3.84,1.73,3.62c.83-.18,2.49,1.4,3.16.88s-1.36-3.11-.69-3.63.61,1.51,1.45,1.49c1.11,0,2-4.1,3-3.62s1.24-.49,2.26-.07,0,2.66,1,3,.38-.57,1.42-.71c.87-.12,1.36,2.11,2,1.54s-1.79-3.46-1.12-4,2.89,4.78,3.76,4.68c1.06-.11,1.42-5,2.42-4.67s0,5.07,1.09,5.13.61-4.38,1.61-4.67,1.84,3.94,2.87,3.79.61-4.62,1.61-4.63.76-1.32,1.75-1.4,1.4,4.23,2.4,4.08.9-1.53,1.88-1.29.16,1.21.83,1.76-.1,1.47.57,2a4,4,0,0,0,2.61.47c1.18-.05,1.57-.54,2.57-1.15s.22-2.05,1.37-2.31c1-.21.53,3.06,1.53,3.23s1.23-.33,2.24-.22,1.1.9,2.09,1,1.08-2.28,2.08-2.2,1.2-1.77,2.2-1.65.88.68,1.88.71.82-2.33,1.81-2.38,1.14,2.85,2.12,3-.14,3.13.86,3.53,2.13-.86,3.21-.89.8-2,1.8-2.5,1-3.43,2.07-3.46,1.82,1.46,2.82,1.86,0,3.76,1,3.93,1.15-2,2.15-2,1-1,2-1.08,1.16,4.61,2.16,4.58.85-1.67,1.85-1.63,1-.48,2-.37,1.69,1.36,2.65,1.07,0-2.57.66-3.17,1.57.38,2.23-.23-.54-3.58.35-3.69c1.07-.14.42,4,1.42,4.4s1.75-3,2.82-3,1.64,3.34,2.64,3,.14.38,1.2.43,2.28-5.31,3.28-4.87-.22,2.58.87,2.63.2-1.59,1.19-1.94,1.61,2.79,2.67,2.87,1.93-2.66,2.93-2.17-.33,6,.77,6.14.93-5.46,1.93-5.72,1.46,2.24,2.49,2.21,1.23-2.16,2.23-2,.63-1.28,1.65-1.3S915,769,916,768.71s1-2.37,2.05-2.21,1.91-.19,2.91.38-.34,2,.81,1.88,1.44,1,2.44.25.9,1.41,2.12,1.22c1.06-.16,1.43-4.94,2.43-4.52s0,1.08,1.05,1.06-.15-1.11.84-1.56a6.71,6.71,0,0,1,3.45-.16c1.23.17.49,3,1.49,3.68s1.28-.05,2.48.29c1,.27.71.4,1.71.23s1,2.37,2,2.38.65-.27,1.65-.08,1.34-1.78,2.35-1.86.82-.67,1.82-1,1.13,1.64,2.19,1.65.73-.61,1.73-.26,1.08-2.47,2.13-2.53,2.53,5,3.53,4.52.09-1.63,1.15-1.92.19-5.32,1.19-5.4.94,4.39,1.92,4.6.34.9,1.34,1.42,2.41-3.08,3.51-2.8.48,2.17,1.48,2.17.74-.87,1.69-1.18.73.11,1.39-.43.52-.72,1.19-1.26.39-2.68,1.22-2.86c1-.22,1.57,2.05,2.57,2.22a5.49,5.49,0,0,1,1.94.72,8.14,8.14,0,0,1,2.16,1.24c1,.74,1.1-.33,2.29,0,1,.27-.08-1.79.92-2s1.63,3.23,2.62,3,1.74,2.54,2.74,2.28.12-.29,1.15-.27.71-1.63,1.71-1.31,1.37-.95,2.41-.8.91-1.37,1.91-1.4,1.65,3.56,2.6,3.26c1.12-.36-1.3-5.22-.3-5.83s2.82,2.67,3.94,2.34c1-.28.79-.13,1.79-.1s1.09-3.46,2.09-3.43,1-.18,2-.15.85,3.93,1.84,4,.88.82,1.88.95a6.75,6.75,0,0,1,1.69.47c1,.31,1.5-1.25,2.5-.8s1.17,3.14,2.26,3a7,7,0,0,0,3.12-1.57c1-.72-1-6.55.24-6.68.85-.09.63,4.33,1.3,4.87s1.87-1,2.53-.41-.43.57.43.51c1.18-.07,1.46,1.49,2.45.84s0-4.17,1.14-4.39a7.87,7.87,0,0,1,3.24.1c1,.25.16,3.8,1.18,3.94s1.14-2.33,2.14-2.29.91,1.9,1.89,1.73.65-1.18,1.65-1.56,1.08,3.46,2.14,3.54.44-1.23,1.43-.7,2.09-2.29,3.19-2,.69,4,1.69,3.94.84.77,1.83.79,1-2,2-1.94,1.12-.54,2.12-.59.51-3.13,1.51-3.32,1.13.49,2.12.3,1.35,1.65,2.35,1.46,1-3.83,2-3.83,1.55.7,2.55.89.45,3.1,1.45,3.24.79,2.36,1.79,2.45,2,1.2,3,1c1.13-.29.2-3.65,1.2-4.26s1.46,1,2.57.65c1-.29.47-4.25,1.47-4.25s1.86-1,2.83-.7.24,3.55,1.24,4.07.78,1.51,1.91,1.54,2.33,2,3.33,1.53-.29-6.1.81-6c.87.05.18,3.26.84,3.83s2.48-1.55,3.14-1-1,2.46-.11,2.47.32-.58,1-1.13.29-1,1-1.55,1.26-2.65,2.12-2.62c1.17,0-.35,5.05.65,5.66s2.07-.27,3.24-.23.68-1.79,1.68-2.33,1.2.15,2.33.16.84.25,1.84.81,1-.32,2.09-.4,1.58,1.27,2.58.59.26-2.34,1.46-2.44-.27,3.38.73,3.9,2.46-2.93,3.56-2.69.76,1.4,1.75,1.33.81-3.72,1.81-3.78,1.11,1.53,2.11,1.5,1,1.55,2,1.34.87-.54,1.87-1,1.67-3.9,2.74-3.73.29,4.38,1.29,5.1,1.07-.13,2.29,0,.46-.11,1.46-.63,1.15,1.38,2.27,1.48.76-.46,1.76.23,1.26.29,2.44.57c1,.23,1.42,2.12,2.42,1.9s0-5,1-5.16,1-.82,2-1,.8.94,1.76.6,2,2.15,3,1.63.67-1.91,1.8-1.89-.6,3.82.4,4.39,2.54-3,3.69-2.9-.16-1.79.84-2.19,2.55,5,3.62,4.79.38-1.5,1.38-1.46a13.29,13.29,0,0,0,2.18.13c1-.08.22-5,1.22-5.19s2.06.93,3,1.17.89,1.59,1.55,2.18.64.62,1.31,1.22-.12,1.32.77,1.38c1.11.07.72-.53,1.72-1s1.38.36,2.4-.08,1.78,1.7,2.78,1.32.32-5.52,1.38-5.37-.29,4.27.71,5,2.2-1.9,3.37-1.58c1,.26.48.56,1.48.42s1.55,2.51,2.53,2.27,0-3.89,1-4.23,1.66-1.56,2.71-1.51-.08,5.41.91,5.82,1.65-.58,2.7-.34a9.05,9.05,0,0,0,2.2.31c1,0,1.51.55,2.48.31s.51-2.3,1.51-2.86.76-3,1.9-3.11,1.21,2.44,2.2,2.84.93,3.49,2,3.48,1.44-1.89,2.44-2.32.38-3.08,1.47-3.13.41,3.33,1.41,3.67,1.51,1.33,2.56,1.36a8.45,8.45,0,0,0,2.79-.56c1-.29.19-1.33,1.23-1.3s1.32-2.27,2.32-1.94.81,4.14,1.86,4.08.16-4.61,1.15-5.06,1.88,2.2,3,2,.91-3.89,1.91-3.82.86,4.55,1.86,4.54,1-1.34,2-1.44,1-1.1,2-1,.7,1.58,1.7,1.85.22,1.48,1.16,1.91,1.78-1.23,2.78-.58.78,1.7,1.91,2.07a6.73,6.73,0,0,0,2.41.52,6.47,6.47,0,0,0,2.6-.14,6.81,6.81,0,0,0,2.47-1c.67-.62.39-.92,1-1.54s-1.29.59-.39.67c1.25.09.14-1.21,1.14-.46a8.18,8.18,0,0,0,2.71,1.1c.93.36,1.37,1.74,2.37,1.75a10.27,10.27,0,0,0,2.6-.09c1.07-.21-.83-6.12.17-6.55s2.7,3.94,3.73,3.62.72-.8,1.72-1,.55-2.58,1.56-2.76,1.13.55,2.13.38,1.25-.68,2.26-.56,2-1.45,3-1,.14,1.11,1.21,1.27.76,3.74,1.76,3.65.49-4.29,1.49-4.42,1.17,1.46,2.17,1.28.89,1.73,1.87,2c1.19.34.45.74,1.45,1.48s2.43-3.1,3.63-2.81c1,.24,1,5.92,2,5.67s.5-2.67,1.45-3.06-.58-3.45.42-4,2.08-1.73,3.24-1.78c.83,0,.79,3.49,1.45,4s0,1.38.68,1.89,1.25-.29,2.06-.07c1,.26.86-1.14,1.86-1.2s1.42,3.13,2.41,3,.88-1.42,1.88-1.74.7-.41,1.75-.37,0,2,1,2.38a7.75,7.75,0,0,0,3.2.9c.85-.07,2.07-1.12,2.73-1.65s-2.89-5-2.23-5.53,2.37.37,3.22.31c1.07-.09.63,2.61,1.63,3s.86,1.62,1.9,1.88a13,13,0,0,0,2.33.24,14.25,14.25,0,0,1,1.85.11c1,.17,1.06-.66,2.06-.41s.87,1.55,1.88,1.73,1.18,0,2.18.13.94-3.58,1.92-3.79,2.89,4,3.89,3.49-.2-2.19.89-2.51.73,1.24,1.73,1.18,1,.4,2,.35.84-3.83,1.84-3.86.53,1.76,1.48,2.07c1.15.38-.31,1.74.69,2.43s2.69-2,3.89-1.87c.85.08.46-.2,1.13-.73s-.39-1.86.27-2.39,1.89,1.85,2.73,1.74c1-.14-.12,2.21.88,2.51a10.24,10.24,0,0,0,3,.49c1,0,1.3-2.35,2.3-2.65s.45-3,1.48-3.18,1.24.74,2.25.76,1.43-1.45,2.42-1.25,1.57-.33,2.4,0-1.07,4.92-.24,5.26,1.35-.81,2-1.45c.88-.89,3-.7,3.08-2s-4.94-1-5.12-2.26c-.14-1.06,4.71-2.27,4.33-3.27s0-.09,0-1.16-1.58-.56-1.23-1.57-2.55-1.22-2.61-2.28.17-.42-.29-1.42a5.2,5.2,0,0,1-.49-2.75c0-1.14,2-.8,2.5-1.8s-.55-1-.57-2.16c0-.87,2.77-2.38,2.21-3.05s0-1.17-.53-1.83-3.91,1.78-4.08.92c-.19-1,3.24-.43,3.48-1.44s-.69-1.64-.71-2.67-2-.9-2.28-1.91-2-1-2-2a8.89,8.89,0,0,1,.23-2.46c.21-1,3.74-.53,3.79-1.55s-3.79-.81-3.91-1.81,4.87-.48,5.12-1.46c.22-.83-.66.11-.11-.56s-1.12-2-.57-2.71-.47-.94-.3-1.79,2.56-1.12,2.35-2.12-1.25-.88-1.63-1.83a11.1,11.1,0,0,0-1.13-2.09c-.58-1-.84-.79-1.21-1.88s2.07-1.13,2-2.13-5.32-.78-5.31-1.78,4.93-.71,5-1.72-3-1.56-2.68-2.51c.41-1.11,0-1.58.59-2.58s4,0,4.07-1.14-2.35-.9-2.89-1.9,2.76-1.57,2.59-2.69-1.8-.18-1.57-1.19,2.13-1.5,2-2.53-4.28-.42-4.66-1.42,2.93-1.88,2.7-2.92.91-.7.84-1.7-4.13-.75-4.14-1.76,0-1,.08-2,.38-1,.72-1.95,2.66,1.12,3.22.45-3-3.65-2.46-4.32.56.85.49,0c-.1-1.22,1.2-1.09.5-2.09s-.45-1-.6-2.17-.53-1.06-.07-2.07-.07-1.13.27-2.18,1.71-.58,1.92-1.59-1.7-1.27-1.58-2.29,1.67-.83,1.7-1.83.84-1,.88-2-3-1.21-2.93-2.25,2.31-.93,2-1.93-3.47.38-3.94-.66S1365.84,656.84,1365.3,655.84Z"/><ellipse class="cls-9" cx="488" cy="293.5" rx="83" ry="78.5"/><ellipse class="cls-10" cx="488.45" cy="284.41" rx="240.47" ry="227.43"/><ellipse class="cls-11" cx="499.98" cy="289.43" rx="431.98" ry="375.43"/><ellipse class="cls-12" cx="537.57" cy="-231.01" rx="615.6" ry="535.02"/><rect class="cls-13" x="1" width="1365" height="769"/></g></g></svg>
